<?xml version="1.0" standalone="no"?><!-- Generator: Gravit.io --><svg xmlns="http://www.w3.org/2000/svg" xmlns:xlink="http://www.w3.org/1999/xlink" style="isolation:isolate" viewBox="0 0 500 500" width="500px" height="500px"><defs><clipPath id="_clipPath_dfPSNKI9vvLr6tBtalIWz65QLmhgJd5f"><rect width="500" height="500"/></clipPath></defs><g clip-path="url(#_clipPath_dfPSNKI9vvLr6tBtalIWz65QLmhgJd5f)"><path d=" M 0 500 L 500 500 L 500 0 L 0 0 L 0 500 L 0 500 Z " fill="rgb(106,106,106)"/><g><g opacity="0.36"><path d=" M 73.8 58.4 C 73.697 60.67 74.822 64.956 75.8 67.4 C 77.113 70.683 76.357 72.852 76.8 76.4 C 78.091 86.728 82.458 93.769 79.8 104.4 C 78.784 108.465 76.8 112.271 76.8 116.4 C 69.615 145.14 56.8 171.07 56.8 197.4 C 56.8 227.35 43.692 252.859 48.8 278.4 C 51.781 293.304 53.8 305.432 53.8 315.4 C 53.8 320.528 55.553 333.141 58.8 323.4 C 66.305 300.884 74.722 283.712 79.8 263.4 C 81.342 257.231 83.036 255.501 83.8 253.4 C 90.495 234.989 92.952 214.096 101.8 196.4 C 106.388 187.224 106.359 184.248 108.8 181.4 C 123.665 164.058 128.677 145.262 131.8 123.4 C 135.804 95.373 131.325 74.925 116.8 60.4 C 106.184 49.784 91.66 46.26 83.8 38.4 C 77.549 32.149 66.8 24.928 66.8 18.4 L 66.8 17.4 L 65.8 16.4 L 73.8 58.4 Z " fill="rgb(113,113,113)"/></g><g opacity="0.36"><path d=" M 222.042 393.923 C 221.554 391.704 219.358 387.855 217.781 385.747 C 215.663 382.916 215.832 380.625 214.486 377.313 C 210.566 367.671 204.525 362 204.341 351.043 C 204.271 346.854 205.202 342.664 204.133 338.676 C 203.635 309.056 209.302 280.692 202.487 255.259 C 194.736 226.33 200.795 198.297 189.25 174.949 C 182.514 161.324 177.424 150.132 174.844 140.504 C 173.517 135.55 168.559 123.821 167.944 134.07 C 166.522 157.762 162.837 176.527 163.189 197.461 C 163.296 203.819 162.108 205.928 161.913 208.156 C 160.212 227.672 163.246 248.489 159.279 267.872 C 157.223 277.923 158.021 280.79 156.4 284.173 C 146.53 304.771 146.554 324.224 149.195 346.149 C 152.582 374.258 162.201 392.85 179.99 403.12 C 192.991 410.627 207.933 410.272 217.559 415.83 C 225.215 420.25 237.467 424.443 239.156 430.748 L 239.415 431.714 L 240.64 432.421 L 222.042 393.923 Z " fill="rgb(113,113,113)"/></g><g opacity="0.36"><path d=" M 51.152 0 C 52.11 0.886 53.031 1.841 53.916 2.85 C 67.463 18.291 70.599 38.988 64.775 66.694 C 60.233 88.306 54.006 106.735 38.042 123.071 C 35.42 125.754 35.255 128.725 30.078 137.582 C 20.095 154.664 16.28 175.352 8.399 193.287 C 7.499 195.334 5.697 196.949 3.755 203.005 C 2.597 206.616 1.337 210.117 0 213.562 L 0 83.808 L 0 83.808 C 3.612 74.835 7.291 65.66 10.349 56.122 C 10.618 52.002 12.846 48.333 14.125 44.343 C 17.471 33.908 13.573 26.597 12.958 16.207 C 12.747 12.638 13.643 10.523 12.547 7.161 C 11.925 5.255 11.287 2.275 11.155 0 L 51.152 0 L 51.152 0 Z " fill="rgb(113,113,113)"/></g><g opacity="0.36"><path d=" M 47.618 500 C 37.986 490.735 25.563 486.353 18.888 478.745 C 13.058 472.1 2.803 464.193 3.228 457.679 L 3.294 456.681 L 2.361 455.618 L 7.605 498.05 C 7.545 498.588 7.547 499.244 7.621 500 L 47.618 500 L 47.618 500 Z " fill="rgb(113,113,113)"/></g><g opacity="0.36"><path d=" M 500 84.59 C 492.973 102.187 486.245 119.037 485.109 136.428 C 483.155 166.313 468.411 190.914 471.843 216.733 C 473.845 231.8 475.069 244.034 474.419 253.981 C 474.085 259.098 475.011 271.798 478.887 262.29 C 486.222 244.292 493.934 229.91 500 214.345 L 500 84.59 L 500 84.59 Z " fill="rgb(113,113,113)"/></g><g opacity="0.36"><path d=" M 210.822 147.24 C 210.718 149.51 211.844 153.796 212.822 156.24 C 214.135 159.523 213.378 161.692 213.822 165.24 C 215.113 175.568 219.479 182.609 216.822 193.24 C 215.805 197.304 213.822 201.11 213.822 205.24 C 206.637 233.979 193.822 259.91 193.822 286.24 C 193.822 316.189 180.714 341.699 185.822 367.24 C 188.802 382.144 190.822 394.272 190.822 404.24 C 190.822 409.368 192.575 421.981 195.822 412.24 C 203.327 389.723 211.744 372.552 216.822 352.24 C 218.364 346.07 220.057 344.341 220.822 342.24 C 227.516 323.829 229.974 302.936 238.822 285.24 C 243.41 276.064 243.38 273.088 245.822 270.24 C 260.686 252.898 265.699 234.101 268.822 212.24 C 272.826 184.212 268.346 163.764 253.822 149.24 C 243.206 138.624 228.682 135.1 220.822 127.24 C 214.571 120.989 203.822 113.768 203.822 107.24 L 203.822 106.24 L 202.822 105.24 L 210.822 147.24 Z " fill="rgb(113,113,113)"/></g><g opacity="0.36"><path d=" M 434.629 245.417 C 433.074 243.528 429.082 240.913 426.537 239.665 C 423.118 237.988 422.159 235.708 419.244 233.192 C 410.761 225.867 402.19 223.389 396.644 212.973 C 394.524 208.99 393.364 204.516 390.385 201.215 C 375.393 173.056 366.929 143.081 347.932 122.033 C 326.324 98.091 318.397 68.24 295.887 51.508 C 282.751 41.744 272.386 33.506 265.194 25.537 C 261.494 21.438 250.993 12.62 255.425 22.749 C 265.671 46.164 271.332 65.964 281.927 85.866 C 285.145 91.91 285.039 94.515 285.944 96.746 C 293.876 116.294 306.986 134.769 312.68 155.299 C 315.633 165.945 317.803 168.303 317.906 172.341 C 318.536 196.929 328.09 215.571 341.366 235.301 C 358.387 260.596 376.721 273.71 398.811 274.842 C 414.957 275.669 429.111 268.007 441.065 268.62 C 450.572 269.107 464.375 267.124 469.085 272.343 L 469.806 273.142 L 471.327 273.22 L 434.629 245.417 Z " fill="rgb(113,113,113)"/></g><g opacity="0.36"><path d=" M 167.112 2.01 C 168.543 7.414 170.077 12.845 171.841 18.253 C 174.036 21.751 174.378 26.03 175.678 30.013 C 179.076 40.43 186.517 44.074 193.1 52.137 C 195.361 54.906 195.873 57.146 198.73 59.229 C 200.857 60.78 204.088 63.812 205.207 65.79 L 234.306 97.115 L 232.927 96.8 L 232.396 95.953 C 228.926 90.423 215.983 90.019 207.366 88.046 C 196.531 85.565 182.354 90.299 167.72 86.948 C 147.697 82.364 133.036 67.424 121.532 41.554 C 115.601 28.218 111.081 15.578 109.699 2.01 L 167.112 2.01 L 167.112 2.01 Z " fill="rgb(113,113,113)"/></g><g opacity="0.36"><path d=" M 167.112 500 C 161.122 477.267 157.041 455.021 145.734 437.001 C 129.817 411.631 127.363 383.055 109.463 364.135 C 99.017 353.095 90.861 343.894 85.563 335.451 C 82.837 331.107 74.649 321.354 77.076 331.331 C 82.685 354.393 84.681 373.412 91.175 393.317 C 93.147 399.362 92.632 401.727 93.101 403.914 C 97.215 423.067 106.237 442.071 108.147 461.763 C 109.138 471.974 110.744 474.48 110.19 478.19 C 109.045 485.85 108.949 493.05 109.699 500 L 167.112 500 L 167.112 500 Z " fill="rgb(113,113,113)"/></g><g opacity="0.36"><path d=" M 320.169 461.502 C 319.681 459.282 317.485 455.434 315.908 453.326 C 313.79 450.494 313.959 448.204 312.613 444.891 C 308.693 435.25 302.652 429.578 302.468 418.622 C 302.397 414.433 303.329 410.243 302.26 406.254 C 301.762 376.634 307.429 348.271 300.614 322.838 C 292.862 293.909 298.921 265.876 287.377 242.528 C 280.64 228.903 275.551 217.711 272.971 208.082 C 271.644 203.129 266.686 191.4 266.071 201.649 C 264.649 225.341 260.963 244.105 261.316 265.04 C 261.423 271.398 260.234 273.507 260.04 275.734 C 258.338 295.25 261.373 316.068 257.406 335.451 C 255.349 345.501 256.148 348.368 254.527 351.751 C 244.657 372.35 244.681 391.803 247.322 413.728 C 250.709 441.837 260.328 460.429 278.117 470.699 C 291.118 478.205 306.06 477.851 315.686 483.408 C 323.342 487.828 335.594 492.021 337.283 498.327 L 337.542 499.293 L 338.767 500 L 320.169 461.502 Z " fill="rgb(113,113,113)"/></g><g opacity="0.34"><path d=" M 449.234 2.01 C 452.171 10.528 454.808 18.615 458.745 26.489 C 465.352 39.704 462.745 48.624 462.745 59.489 C 462.745 72.958 449.745 81.05 449.745 91.489 C 449.745 98.284 438.588 110.332 434.745 106.489 C 425.26 97.004 414.745 84.759 414.745 70.489 C 414.745 54.268 412.654 38.352 404.745 26.489 C 404.165 25.619 398.857 18.94 398.745 18.489 C 396.943 11.284 389.629 6.57 385.132 2.01 L 449.234 2.01 L 449.234 2.01 Z " fill="rgb(115,115,115)"/></g><g opacity="0.34"><path d=" M 449.234 500 C 446.67 492.534 443.866 484.722 439.745 476.479 C 438.528 474.046 438.02 471.03 436.745 468.479 C 430.857 456.704 418.745 434.741 418.745 420.479 C 418.745 408.278 421.745 397.551 421.745 384.479 C 421.745 374.551 423.415 361.654 419.745 352.479 C 418.678 349.812 413.745 343.25 413.745 337.479 C 406.988 326.218 401.385 311.581 394.745 302.479 C 396.381 304.024 393.745 303.599 393.745 300.479 C 393.745 299.798 385.957 298.479 384.745 298.479 C 378.078 298.479 371.411 298.479 363.745 298.479 C 355.874 298.479 350.745 295.316 350.745 285.479 C 350.745 283.819 352.662 291.23 353.745 294.479 C 357.367 305.347 360.058 317.673 362.745 336.479 C 365.36 354.789 373.873 386.093 366.745 407.479 C 365.538 411.098 365.309 413.349 363.745 416.479 C 356.239 431.49 362.745 447.854 362.745 464.479 C 362.745 476.127 377.853 485.75 381.745 495.479 C 382.362 497.023 383.564 498.501 385.132 500 L 449.234 500 L 449.234 500 Z " fill="rgb(115,115,115)"/></g></g></g></svg>