<?xml version="1.0" standalone="no"?><!-- Generator: Gravit.io --><svg xmlns="http://www.w3.org/2000/svg" xmlns:xlink="http://www.w3.org/1999/xlink" style="isolation:isolate" viewBox="0 0 500 500" width="500px" height="500px"><defs><clipPath id="_clipPath_N4tMUZgOMMhslyRF2AX8QyKlmLdgKkSi"><rect width="500" height="500"/></clipPath></defs><g clip-path="url(#_clipPath_N4tMUZgOMMhslyRF2AX8QyKlmLdgKkSi)"><path d=" M 0 500 L 500 500 L 500 0 L 0 0 L 0 500 L 0 500 Z " fill="rgb(106,106,106)"/><g><g opacity="0.36"><path d=" M 73.8 58.4 C 73.697 60.67 74.822 64.956 75.8 67.4 C 77.113 70.683 76.357 72.852 76.8 76.4 C 78.091 86.728 82.458 93.769 79.8 104.4 C 78.784 108.465 76.8 112.271 76.8 116.4 C 69.615 145.14 56.8 171.07 56.8 197.4 C 56.8 227.35 43.692 252.859 48.8 278.4 C 51.781 293.304 53.8 305.432 53.8 315.4 C 53.8 320.528 55.553 333.141 58.8 323.4 C 66.305 300.884 74.722 283.712 79.8 263.4 C 81.342 257.231 83.036 255.501 83.8 253.4 C 90.495 234.989 92.952 214.096 101.8 196.4 C 106.388 187.224 106.359 184.248 108.8 181.4 C 123.665 164.058 128.677 145.262 131.8 123.4 C 135.804 95.373 131.325 74.925 116.8 60.4 C 106.184 49.784 91.66 46.26 83.8 38.4 C 77.549 32.149 66.8 24.928 66.8 18.4 L 66.8 17.4 L 65.8 16.4 L 73.8 58.4 Z " fill="rgb(113,113,113)"/></g><g opacity="0.36"><path d=" M 222.042 393.923 C 221.554 391.704 219.358 387.855 217.781 385.747 C 215.663 382.916 215.832 380.625 214.486 377.313 C 210.566 367.671 204.525 362 204.341 351.043 C 204.271 346.854 205.202 342.664 204.133 338.676 C 203.635 309.056 209.302 280.692 202.487 255.259 C 194.736 226.33 200.795 198.297 189.25 174.949 C 182.514 161.324 177.424 150.132 174.844 140.504 C 173.517 135.55 168.559 123.821 167.944 134.07 C 166.522 157.762 162.837 176.527 163.189 197.461 C 163.296 203.819 162.108 205.928 161.913 208.156 C 160.212 227.672 163.246 248.489 159.279 267.872 C 157.223 277.923 158.021 280.79 156.4 284.173 C 146.53 304.771 146.554 324.224 149.195 346.149 C 152.582 374.258 162.201 392.85 179.99 403.12 C 192.991 410.627 207.933 410.272 217.559 415.83 C 225.215 420.25 237.467 424.443 239.156 430.748 L 239.415 431.714 L 240.64 432.421 L 222.042 393.923 Z " fill="rgb(113,113,113)"/></g><g opacity="0.36"><path d=" M 51.152 0 C 52.11 0.886 53.031 1.841 53.916 2.85 C 67.463 18.291 70.599 38.988 64.775 66.694 C 60.233 88.306 54.006 106.735 38.042 123.071 C 35.42 125.754 35.255 128.725 30.078 137.582 C 20.095 154.664 16.28 175.352 8.399 193.287 C 7.499 195.334 5.697 196.949 3.755 203.005 C 2.597 206.616 1.337 210.117 0 213.562 L 0 83.808 L 0 83.808 C 3.612 74.835 7.291 65.66 10.349 56.122 C 10.618 52.002 12.846 48.333 14.125 44.343 C 17.471 33.908 13.573 26.597 12.958 16.207 C 12.747 12.638 13.643 10.523 12.547 7.161 C 11.925 5.255 11.287 2.275 11.155 0 L 51.152 0 L 51.152 0 Z " fill="rgb(113,113,113)"/></g><g opacity="0.36"><path d=" M 47.618 500 C 37.986 490.735 25.563 486.353 18.888 478.745 C 13.058 472.1 2.803 464.193 3.228 457.679 L 3.294 456.681 L 2.361 455.618 L 7.605 498.05 C 7.545 498.588 7.547 499.244 7.621 500 L 47.618 500 L 47.618 500 Z " fill="rgb(113,113,113)"/></g><g opacity="0.36"><path d=" M 500 84.59 C 492.973 102.187 486.245 119.037 485.109 136.428 C 483.155 166.313 468.411 190.914 471.843 216.733 C 473.845 231.8 475.069 244.034 474.419 253.981 C 474.085 259.098 475.011 271.798 478.887 262.29 C 486.222 244.292 493.934 229.91 500 214.345 L 500 84.59 L 500 84.59 Z " fill="rgb(113,113,113)"/></g><g opacity="0.36"><path d=" M 210.822 147.24 C 210.718 149.51 211.844 153.796 212.822 156.24 C 214.135 159.523 213.378 161.692 213.822 165.24 C 215.113 175.568 219.479 182.609 216.822 193.24 C 215.805 197.304 213.822 201.11 213.822 205.24 C 206.637 233.979 193.822 259.91 193.822 286.24 C 193.822 316.189 180.714 341.699 185.822 367.24 C 188.802 382.144 190.822 394.272 190.822 404.24 C 190.822 409.368 192.575 421.981 195.822 412.24 C 203.327 389.723 211.744 372.552 216.822 352.24 C 218.364 346.07 220.057 344.341 220.822 342.24 C 227.516 323.829 229.974 302.936 238.822 285.24 C 243.41 276.064 243.38 273.088 245.822 270.24 C 260.686 252.898 265.699 234.101 268.822 212.24 C 272.826 184.212 268.346 163.764 253.822 149.24 C 243.206 138.624 228.682 135.1 220.822 127.24 C 214.571 120.989 203.822 113.768 203.822 107.24 L 203.822 106.24 L 202.822 105.24 L 210.822 147.24 Z " fill="rgb(113,113,113)"/></g><g opacity="0.36"><path d=" M 434.629 245.417 C 433.074 243.528 429.082 240.913 426.537 239.665 C 423.118 237.988 422.159 235.708 419.244 233.192 C 410.761 225.867 402.19 223.389 396.644 212.973 C 394.524 208.99 393.364 204.516 390.385 201.215 C 375.393 173.056 366.929 143.081 347.932 122.033 C 326.324 98.091 318.397 68.24 295.887 51.508 C 282.751 41.744 272.386 33.506 265.194 25.537 C 261.494 21.438 250.993 12.62 255.425 22.749 C 265.671 46.164 271.332 65.964 281.927 85.866 C 285.145 91.91 285.039 94.515 285.944 96.746 C 293.876 116.294 306.986 134.769 312.68 155.299 C 315.633 165.945 317.803 168.303 317.906 172.341 C 318.536 196.929 328.09 215.571 341.366 235.301 C 358.387 260.596 376.721 273.71 398.811 274.842 C 414.957 275.669 429.111 268.007 441.065 268.62 C 450.572 269.107 464.375 267.124 469.085 272.343 L 469.806 273.142 L 471.327 273.22 L 434.629 245.417 Z " fill="rgb(113,113,113)"/></g><g opacity="0.36"><path d=" M 167.112 2.01 C 168.543 7.414 170.077 12.845 171.841 18.253 C 174.036 21.751 174.378 26.03 175.678 30.013 C 179.076 40.43 186.517 44.074 193.1 52.137 C 195.361 54.906 195.873 57.146 198.73 59.229 C 200.857 60.78 204.088 63.812 205.207 65.79 L 234.306 97.115 L 232.927 96.8 L 232.396 95.953 C 228.926 90.423 215.983 90.019 207.366 88.046 C 196.531 85.565 182.354 90.299 167.72 86.948 C 147.697 82.364 133.036 67.424 121.532 41.554 C 115.601 28.218 111.081 15.578 109.699 2.01 L 167.112 2.01 L 167.112 2.01 Z " fill="rgb(113,113,113)"/></g><g opacity="0.36"><path d=" M 167.112 500 C 161.122 477.267 157.041 455.021 145.734 437.001 C 129.817 411.631 127.363 383.055 109.463 364.135 C 99.017 353.095 90.861 343.894 85.563 335.451 C 82.837 331.107 74.649 321.354 77.076 331.331 C 82.685 354.393 84.681 373.412 91.175 393.317 C 93.147 399.362 92.632 401.727 93.101 403.914 C 97.215 423.067 106.237 442.071 108.147 461.763 C 109.138 471.974 110.744 474.48 110.19 478.19 C 109.045 485.85 108.949 493.05 109.699 500 L 167.112 500 L 167.112 500 Z " fill="rgb(113,113,113)"/></g><g opacity="0.36"><path d=" M 320.169 461.502 C 319.681 459.282 317.485 455.434 315.908 453.326 C 313.79 450.494 313.959 448.204 312.613 444.891 C 308.693 435.25 302.652 429.578 302.468 418.622 C 302.397 414.433 303.329 410.243 302.26 406.254 C 301.762 376.634 307.429 348.271 300.614 322.838 C 292.862 293.909 298.921 265.876 287.377 242.528 C 280.64 228.903 275.551 217.711 272.971 208.082 C 271.644 203.129 266.686 191.4 266.071 201.649 C 264.649 225.341 260.963 244.105 261.316 265.04 C 261.423 271.398 260.234 273.507 260.04 275.734 C 258.338 295.25 261.373 316.068 257.406 335.451 C 255.349 345.501 256.148 348.368 254.527 351.751 C 244.657 372.35 244.681 391.803 247.322 413.728 C 250.709 441.837 260.328 460.429 278.117 470.699 C 291.118 478.205 306.06 477.851 315.686 483.408 C 323.342 487.828 335.594 492.021 337.283 498.327 L 337.542 499.293 L 338.767 500 L 320.169 461.502 Z " fill="rgb(113,113,113)"/></g><g opacity="0.34"><path d=" M 449.234 2.01 C 452.171 10.528 454.808 18.615 458.745 26.489 C 465.352 39.704 462.745 48.624 462.745 59.489 C 462.745 72.958 449.745 81.05 449.745 91.489 C 449.745 98.284 438.588 110.332 434.745 106.489 C 425.26 97.004 414.745 84.759 414.745 70.489 C 414.745 54.268 412.653 38.352 404.745 26.489 C 404.165 25.619 398.857 18.94 398.745 18.489 C 396.943 11.284 389.629 6.57 385.132 2.01 L 449.234 2.01 L 449.234 2.01 Z " fill="rgb(115,115,115)"/></g><g opacity="0.34"><path d=" M 449.234 500 C 446.67 492.534 443.866 484.722 439.745 476.479 C 438.528 474.046 438.02 471.03 436.745 468.479 C 430.857 456.704 418.745 434.741 418.745 420.479 C 418.745 408.278 421.745 397.551 421.745 384.479 C 421.745 374.551 423.415 361.654 419.745 352.479 C 418.678 349.812 413.745 343.25 413.745 337.479 C 406.988 326.218 401.385 311.581 394.745 302.479 C 396.381 304.024 393.745 303.599 393.745 300.479 C 393.745 299.798 385.957 298.479 384.745 298.479 C 378.078 298.479 371.411 298.479 363.745 298.479 C 355.874 298.479 350.745 295.316 350.745 285.479 C 350.745 283.819 352.662 291.23 353.745 294.479 C 357.367 305.347 360.058 317.673 362.745 336.479 C 365.36 354.789 373.873 386.093 366.745 407.479 C 365.538 411.098 365.309 413.349 363.745 416.479 C 356.239 431.49 362.745 447.854 362.745 464.479 C 362.745 476.127 377.853 485.75 381.745 495.479 C 382.362 497.023 383.564 498.501 385.132 500 L 449.234 500 L 449.234 500 Z " fill="rgb(115,115,115)"/></g></g><g><g opacity="0.05"><path d=" M 232.8 165.9 C 234.96 174.308 232.8 190.147 232.8 198.15 C 232.8 217.336 228.666 236.053 223.8 250.65 C 222.092 255.773 220.943 258.773 220.05 261.9 C 219.227 264.78 217.777 268.314 216.3 270.9 C 212.962 276.742 202.8 291.651 202.8 298.65 C 202.8 302.118 200.209 307.856 199.8 309.9 C 199.8 309.9 196.8 323.4 196.8 323.4 C 196.8 323.4 202.8 308.4 202.8 308.4 C 202.8 299.338 213.791 287.919 217.05 281.4 C 222.735 270.031 229.901 260.846 233.55 249.9 C 238.547 234.91 239.55 223.865 239.55 210.15 C 239.55 194.762 235.8 181.268 232.8 165.9 Z " fill="rgb(255,255,255)"/></g><g opacity="0.05"><path d=" M 82.533 67.759 C 86.59 75.433 88.176 91.34 90.039 99.123 C 94.505 117.782 94.841 136.947 93.506 152.276 C 93.038 157.655 92.619 160.841 92.478 164.09 C 92.348 167.082 91.76 170.857 90.925 173.715 C 89.039 180.174 82.626 197.039 84.255 203.846 C 85.062 207.218 83.878 213.402 83.956 215.485 C 83.956 215.485 84.181 229.312 84.181 229.312 C 84.181 229.312 86.525 213.328 86.525 213.328 C 84.415 204.514 92.446 190.851 94.099 183.753 C 96.981 171.372 101.813 160.771 102.814 149.277 C 104.184 133.536 102.589 122.561 99.397 109.222 C 95.815 94.257 89.027 82.006 82.533 67.759 Z " fill="rgb(255,255,255)"/></g><g opacity="0.02"><path d=" M 118.2 266.1 C 113.955 276.005 117.242 295.6 118.95 305.85 C 123.61 319.831 127.2 339.833 127.2 352.35 C 127.2 364.843 130.713 382.132 134.7 392.1 C 140.355 406.238 145.484 422.384 153.45 430.35 C 155.501 432.401 157.574 436.162 158.7 437.85 C 160.555 440.632 161.252 443.178 163.2 446.1 C 164.776 448.463 167.162 450.274 168.45 452.85 C 168.45 452.85 183.45 471.6 183.45 471.6 C 183.45 459.493 178.437 452.812 175.2 443.1 C 171.062 430.687 160.639 421.479 155.7 411.6 C 153.638 407.476 152.039 403.616 151.2 401.1 C 149.759 396.778 146.245 380.395 143.7 377.85 C 141.879 376.029 141.797 369.083 141.45 367.35 C 140.303 361.613 138.837 351.431 135.45 346.35 C 129.303 337.13 127.2 315.516 127.2 307.35 C 127.2 292.628 127.58 279.191 129.45 266.1 C 129.704 264.32 129.454 259.342 130.2 257.85 C 137.358 243.534 134.851 226.049 141.45 212.85 C 144.753 206.245 136.391 207.879 132.45 209.85 C 126.696 212.727 127.2 218.268 127.2 224.1 C 127.2 237.4 129.921 248.379 121.2 257.1 L 120.45 257.85 L 118.2 266.1 Z " fill="rgb(255,255,255)"/></g><g opacity="0.13"><path d=" M 272.8 318.8 C 272.431 335.209 271.8 353.298 271.8 369.8 C 271.8 389.373 269.79 410.779 277.8 426.8 C 284.605 440.409 279.8 423.77 279.8 417.8 C 279.8 408.495 275.8 399.312 275.8 390.8 C 275.8 387.467 275.8 384.133 275.8 380.8 C 275.8 364.467 275.8 350.133 275.8 335.8 C 275.8 331.467 275.8 328.133 272.8 318.8 Z " fill="rgb(157,155,155)"/></g><g opacity="0.13"><path d=" M 379.8 323.8 C 381.475 328.453 384.8 333.875 384.8 338.8 C 384.8 342.489 385.8 344.169 385.8 347.8 C 385.8 350.133 385.8 352.467 385.8 354.8 C 385.8 358.617 385.27 354.8 386.8 354.8 C 388.663 347.347 389.8 343.772 389.8 339.8 C 389.8 334.647 389.87 330.94 387.8 326.8 C 387.3 325.801 381.8 321.303 381.8 319.8 L 381.8 318.8 L 379.8 323.8 Z " fill="rgb(157,155,155)"/></g><g opacity="0.13"><path d=" M 403.8 405.8 C 403.8 405.8 397.8 442.8 397.8 442.8 C 397.606 446.106 397.8 449.489 397.8 452.8 C 397.8 465.949 412.8 491.324 412.8 482.8 C 412.8 478.156 408.8 476.381 408.8 472.8 C 408.8 470.749 405.949 450.949 404.8 449.8 C 400.9 445.9 400.8 429.991 400.8 425.8 C 400.8 422.467 400.8 419.133 400.8 415.8 C 400.8 411.678 400.925 409.426 403.8 405.8 Z " fill="rgb(157,155,155)"/></g><g opacity="0.13"><path d=" M 427.8 21.8 C 430.342 29.992 430.8 42.889 430.8 51.8 C 430.8 54.638 430.52 55.64 431.8 51.8 C 436.163 43.075 433.541 23.961 427.8 21.8 Z " fill="rgb(157,155,155)"/></g><g opacity="0.13"><path d=" M 313.8 104.8 C 315.605 117.607 326.647 133.342 330.8 145.8 C 340.997 176.392 341.427 188.054 347.8 200.8 C 352.849 210.899 361.244 216.8 369.8 216.8 C 385.521 216.8 374.051 216.051 369.8 211.8 C 362.501 204.501 352.8 200.204 352.8 187.8 C 352.8 172.837 346.194 156.375 342.8 142.8 C 338.867 127.069 331.342 117.824 320.8 111.8 C 319.989 111.337 312.8 107.967 312.8 107.8 L 312.8 106.8 L 313.8 104.8 Z " fill="rgb(157,155,155)"/></g><g opacity="0.13"><path d=" M 120.8 466.8 C 121.24 460.772 120.8 453.969 120.8 447.8 C 114.975 425.958 113.535 421.608 111.8 413.8 C 111.8 413.8 116.8 422.8 116.8 422.8 C 118.128 426.785 124.8 431.918 124.8 435.8 C 124.8 451.185 128.956 455.926 120.8 466.8 Z " fill="rgb(157,155,155)"/></g><g opacity="0.13"><path d=" M 36.8 426.8 C 35.871 422.132 35.8 416.593 35.8 411.8 C 33.662 379.726 26.748 349.904 34.8 333.8 C 35.8 331.8 40.8 310.8 40.8 310.8 C 34.203 312.685 32.898 313.556 30.8 318.8 C 30.523 319.492 30.133 320.133 29.8 320.8 C 22.123 336.153 25.425 358.3 28.8 371.8 C 32.552 386.806 34.8 403.826 34.8 414.8 C 34.8 415.8 36.8 417.8 36.8 426.8 Z " fill="rgb(157,155,155)"/></g><g opacity="0.13"><path d=" M 141.8 20.8 C 142.585 31.56 155.005 59.065 161.8 56.8 C 161.8 42.44 144.8 29.583 141.8 20.8 Z " fill="rgb(157,155,155)"/></g><g opacity="0.13"><path d=" M 233.8 21.8 C 235.978 30.513 229.8 31.312 229.8 39.8 C 229.8 44.141 232.379 50.589 234.8 51.8 C 237.195 52.998 243.8 53.352 243.8 48.8 C 243.8 40.268 236.8 40.995 236.8 33.8 C 236.8 31.917 244.139 28.123 244.8 26.8 C 247.298 21.803 242.025 19.025 239.8 16.8 C 235.679 12.679 230.486 15.271 233.8 21.8 Z " fill="rgb(157,155,155)"/></g></g><g style="opacity:0.5;"><g opacity="0.2"><circle vector-effect="non-scaling-stroke" cx="325.49999999999994" cy="275.49999999999994" r="13.5" fill="rgb(64,64,64)" stroke-width="5" stroke="rgb(0,0,0)" stroke-linejoin="miter" stroke-linecap="square" stroke-miterlimit="3"/></g><g opacity="0.2"><circle vector-effect="non-scaling-stroke" cx="447.48014583858367" cy="160.5" r="13.5" fill="rgb(64,64,64)" stroke-width="5" stroke="rgb(0,0,0)" stroke-linejoin="miter" stroke-linecap="square" stroke-miterlimit="3"/></g><g opacity="0.2"><circle vector-effect="non-scaling-stroke" cx="211.49999999999994" cy="450.5" r="13.5" fill="rgb(64,64,64)" stroke-width="5" stroke="rgb(0,0,0)" stroke-linejoin="miter" stroke-linecap="square" stroke-miterlimit="3"/></g><g opacity="0.2"><circle vector-effect="non-scaling-stroke" cx="160.49999999999994" cy="112.5" r="13.5" fill="rgb(64,64,64)" stroke-width="5" stroke="rgb(0,0,0)" stroke-linejoin="miter" stroke-linecap="square" stroke-miterlimit="3"/></g></g><g style="opacity:0.18;"><g><g opacity="0.09"><path d=" M 175.883 0 C 179.906 0.011 184.76 0.347 190.565 1.043 C 209.292 3.291 210.153 129.876 206.34 145.889 C 201.957 164.301 148.092 234.147 153.278 187.479 C 161.241 115.81 220.684 34.233 126.03 29.726 C 113.486 29.128 122.509 83.953 124.596 104.3 C 128.694 144.262 120.932 274.804 65.797 164.533 C 63.648 160.236 66.066 154.853 67.231 150.192 C 71.136 134.57 58.684 18.873 83.006 38.33 C 90.395 44.242 192.523 342.221 148.976 115.773 C 148.204 111.762 150.827 107.567 153.278 104.3 C 294.122 -83.492 237.919 289.85 156.146 259.185 C 117.65 244.749 90.716 232.937 67.231 216.161 C 67.231 216.161 77.27 91.393 77.27 91.393 C 77.27 91.393 141.805 155.928 141.805 155.928 C 141.805 155.928 159.014 280.697 159.014 280.697 C 199.039 235.964 185.404 106.595 170.487 102.866 C 46.343 71.83 114.351 284.044 123.161 263.487 C 200.4 83.263 186.358 293.461 189.131 289.301 C 222.446 239.329 250.26 91.674 169.053 196.084 C 157.255 211.253 142.227 233.21 143.239 253.448 C 146.831 325.293 121.629 261.574 120.293 241.975 C 119.41 229.019 121.61 214.962 115.991 203.254 C 114.084 199.281 106.84 203.817 103.084 206.122 C 85.559 216.876 68.617 228.731 52.89 241.975 C 36.782 255.54 90.469 343.692 105.952 338.062 C 119.881 332.997 73.596 268.361 91.611 249.146 C 186.769 147.644 119.541 348.535 177.658 328.023 C 201.66 319.552 184.233 231.937 166.185 231.937 C 130.212 231.937 88.72 300.752 120.293 332.325 C 173.981 386.013 188.394 251.243 189.131 250.58 C 227.034 216.468 226.94 318.6 229.286 322.286 C 229.286 322.286 240.759 173.138 240.759 173.138 C 239.202 156.009 242.803 151.16 249.364 135.851 C 254.805 123.155 223.55 166.39 223.55 227.634" fill="none" vector-effect="non-scaling-stroke" stroke-width="15" stroke="rgb(16,108,5)" stroke-linejoin="miter" stroke-linecap="square" stroke-miterlimit="3"/></g><g opacity="0.09"><path d=" M 108.82 62.711 C 110.014 82.065 97.042 167.249 120.293 178.874 C 126.219 181.837 136.306 61.122 131.766 46.935 C 107.831 -11.194 150.696 62.572 143.239 112.905 C 142.657 116.83 150.304 151.371 159.014 148.758 C 185.697 140.753 174.583 90.269 183.395 77.052 C 202.316 48.669 127.371 0.4 175.071 0" fill="none" vector-effect="non-scaling-stroke" stroke-width="15" stroke="rgb(16,108,5)" stroke-linejoin="miter" stroke-linecap="square" stroke-miterlimit="3"/></g></g><g opacity="0.09"><path d=" M 175.071 0 C 175.336 -0.002 175.605 -0.003 175.883 0" fill="none" vector-effect="non-scaling-stroke" stroke-width="15" stroke="rgb(16,108,5)" stroke-linejoin="miter" stroke-linecap="square" stroke-miterlimit="3"/></g><g><g opacity="0.09"><path d=" M 10.382 0 C -53.819 24.276 -2.635 178.151 4.927 160.505 C 82.166 -19.719 68.124 190.478 70.897 186.319 C 104.212 136.347 132.026 -11.308 50.819 93.101 C 39.021 108.271 23.993 130.227 25.005 150.466 C 28.597 222.311 3.395 158.592 2.059 138.993 C 1.176 126.037 3.376 111.98 -2.243 100.272 C -4.15 96.299 -11.394 100.835 -15.15 103.14 C -32.675 113.894 -49.617 125.749 -65.344 138.993 C -81.452 152.558 -27.765 240.709 -12.282 235.079 C 1.647 230.014 -44.638 165.379 -26.623 146.164 C 68.535 44.661 1.307 245.552 59.424 225.04 C 83.426 216.569 65.999 128.954 47.951 128.954 C 11.978 128.954 -29.514 197.77 2.059 229.343 C 55.747 283.031 70.16 148.261 70.897 147.598 C 108.8 113.485 108.706 215.618 111.052 219.304 C 111.052 219.304 122.525 70.155 122.525 70.155 C 120.968 53.027 124.568 48.178 131.13 32.868 C 136.571 20.173 105.316 63.408 105.316 124.652" fill="none" vector-effect="non-scaling-stroke" stroke-width="15" stroke="rgb(16,108,5)" stroke-linejoin="miter" stroke-linecap="square" stroke-miterlimit="3"/></g><g opacity="0.09"><path d=" M -29.375 0 Q 23.571 52.946 23.571 52.946 C 23.571 52.946 40.78 177.714 40.78 177.714 C 80.496 133.326 67.377 5.602 52.598 0" fill="none" vector-effect="non-scaling-stroke" stroke-width="15" stroke="rgb(16,108,5)" stroke-linejoin="miter" stroke-linecap="square" stroke-miterlimit="3"/></g><g opacity="0.09"><path d=" M 121.103 0 C 120.406 66.931 83.056 173.132 37.912 156.203 C -0.584 141.767 -27.518 129.954 -51.003 113.179 Q -51.003 113.179 -41.897 0" fill="none" vector-effect="non-scaling-stroke" stroke-width="15" stroke="rgb(16,108,5)" stroke-linejoin="miter" stroke-linecap="square" stroke-miterlimit="3"/></g><g opacity="0.09"><path d=" M -8.508 0 C 21.24 75.036 60.881 169.517 30.742 12.791 C 29.97 8.78 32.593 4.585 35.044 1.318 C 35.379 0.871 35.712 0.428 36.04 0" fill="none" vector-effect="non-scaling-stroke" stroke-width="15" stroke="rgb(16,108,5)" stroke-linejoin="miter" stroke-linecap="square" stroke-miterlimit="3"/></g><g opacity="0.09"><path d=" M 6.21 0 C 6.28 0.536 6.322 0.933 6.362 1.318 C 10.46 41.28 2.698 171.822 -52.437 61.551 C -54.586 57.254 -52.168 51.87 -51.003 47.209 C -49.545 41.376 -50.367 21.587 -50.676 0" fill="none" vector-effect="non-scaling-stroke" stroke-width="15" stroke="rgb(16,108,5)" stroke-linejoin="miter" stroke-linecap="square" stroke-miterlimit="3"/></g><g opacity="0.09"><path d=" M 89.875 0 C 90.098 20.671 89.351 37.68 88.106 42.907 C 83.723 61.319 29.858 131.165 35.044 84.497 C 38.202 56.072 49.458 26.09 55.959 0" fill="none" vector-effect="non-scaling-stroke" stroke-width="15" stroke="rgb(16,108,5)" stroke-linejoin="miter" stroke-linecap="square" stroke-miterlimit="3"/></g><g opacity="0.09"><path d=" M 25.829 0 C 25.754 3.381 25.483 6.7 25.005 9.922 C 24.423 13.848 32.07 48.389 40.78 45.775 C 57.609 40.727 59.403 18.78 60.63 0" fill="none" vector-effect="non-scaling-stroke" stroke-width="15" stroke="rgb(16,108,5)" stroke-linejoin="miter" stroke-linecap="square" stroke-miterlimit="3"/></g><g opacity="0.09"><path d=" M -11.272 0 C -12.865 31.059 -12.786 68.469 2.059 75.892 C 5.535 77.63 10.442 36.824 12.963 0" fill="none" vector-effect="non-scaling-stroke" stroke-width="15" stroke="rgb(16,108,5)" stroke-linejoin="miter" stroke-linecap="square" stroke-miterlimit="3"/></g></g><g><g opacity="0.09"><path d=" M 52.815 500 C 52.7 499.948 52.585 499.912 52.47 499.884 C 34.892 495.489 21.167 495.971 10.599 500" fill="none" vector-effect="non-scaling-stroke" stroke-width="15" stroke="rgb(16,108,5)" stroke-linejoin="miter" stroke-linecap="square" stroke-miterlimit="3"/></g><g opacity="0.09"><path d=" M -41.68 500 Q -40.748 488.411 -40.748 488.411 Q -40.748 488.411 -29.159 500" fill="none" vector-effect="non-scaling-stroke" stroke-width="15" stroke="rgb(16,108,5)" stroke-linejoin="miter" stroke-linecap="square" stroke-miterlimit="3"/></g><g opacity="0.09"><path d=" M 36.257 500 C 98.597 417.507 121.898 445.962 121.319 500" fill="none" vector-effect="non-scaling-stroke" stroke-width="15" stroke="rgb(16,108,5)" stroke-linejoin="miter" stroke-linecap="square" stroke-miterlimit="3"/></g><g opacity="0.09"><path d=" M -50.46 500 C -51.053 464.026 -50.251 423.157 -35.011 435.348 C -32.736 437.168 -21.48 466.676 -8.291 500" fill="none" vector-effect="non-scaling-stroke" stroke-width="15" stroke="rgb(16,108,5)" stroke-linejoin="miter" stroke-linecap="square" stroke-miterlimit="3"/></g><g opacity="0.09"><path d=" M 56.175 500 C 66.135 460.243 65.126 429.463 8.012 426.743 C -4.294 426.157 4.157 478.917 6.427 500" fill="none" vector-effect="non-scaling-stroke" stroke-width="15" stroke="rgb(16,108,5)" stroke-linejoin="miter" stroke-linecap="square" stroke-miterlimit="3"/></g><g opacity="0.09"><path d=" M 60.847 500 C 61.586 488.914 62.123 478.95 65.377 474.069 C 85.955 443.203 -4.483 388.817 72.548 398.061 C 85.162 399.575 89.67 457.502 90.092 500" fill="none" vector-effect="non-scaling-stroke" stroke-width="15" stroke="rgb(16,108,5)" stroke-linejoin="miter" stroke-linecap="square" stroke-miterlimit="3"/></g><g opacity="0.09"><path d=" M 13.179 500 C 15.002 473.9 15.626 449.819 13.749 443.953 C -8.654 389.545 27.463 450.684 26.045 500" fill="none" vector-effect="non-scaling-stroke" stroke-width="15" stroke="rgb(16,108,5)" stroke-linejoin="miter" stroke-linecap="square" stroke-miterlimit="3"/></g><g opacity="0.09"><path d=" M -9.197 459.728 C -8.766 466.725 -10.185 482.325 -11.056 500" fill="none" vector-effect="non-scaling-stroke" stroke-width="15" stroke="rgb(16,108,5)" stroke-linejoin="miter" stroke-linecap="square" stroke-miterlimit="3"/></g></g><g><g opacity="0.09"><path d=" M 575.37 0 C 584.741 61.928 543.997 197.034 493.504 178.099 C 455.007 163.663 428.073 151.851 404.588 135.075 C 404.588 135.075 414.627 10.307 414.627 10.307 C 414.627 10.307 479.162 74.842 479.162 74.842 C 479.162 74.842 496.372 199.611 496.372 199.611 C 536.396 154.878 522.761 25.509 507.845 21.78 C 383.7 -9.256 451.709 202.958 460.519 182.401 C 537.758 2.177 523.715 212.375 526.488 208.215 C 559.803 158.243 587.618 10.588 506.411 114.998 C 494.612 130.167 479.584 152.124 480.596 172.362 C 484.189 244.207 458.987 180.488 457.651 160.889 C 456.767 147.933 458.968 133.876 453.348 122.168 C 451.441 118.195 444.198 122.731 440.441 125.036 C 422.916 135.79 405.974 147.645 390.247 160.889 C 374.139 174.454 427.827 262.606 443.309 256.976 C 457.238 251.911 410.954 187.275 428.968 168.06 C 524.127 66.558 456.898 267.449 515.015 246.937 C 539.017 238.465 521.591 150.851 503.542 150.851 C 467.569 150.851 426.077 219.666 457.651 251.239 C 511.339 304.927 525.751 170.157 526.488 169.494 C 564.391 135.382 564.298 237.514 566.644 241.2 C 566.644 241.2 578.117 92.052 578.117 92.052 C 576.559 74.923 580.16 70.074 586.721 54.765 C 592.162 42.069 560.907 85.304 560.907 146.548" fill="none" vector-effect="non-scaling-stroke" stroke-width="15" stroke="rgb(16,108,5)" stroke-linejoin="miter" stroke-linecap="square" stroke-miterlimit="3"/></g><g opacity="0.09"><path d=" M 438.462 0 C 467.784 74.442 519.622 207.791 486.333 34.687 C 485.561 30.676 488.184 26.481 490.635 23.214 C 497.397 14.198 503.705 6.475 509.556 0" fill="none" vector-effect="non-scaling-stroke" stroke-width="15" stroke="rgb(16,108,5)" stroke-linejoin="miter" stroke-linecap="square" stroke-miterlimit="3"/></g><g opacity="0.09"><path d=" M 459.21 0 C 460.251 9.196 461.371 17.544 461.953 23.214 C 466.051 63.176 458.289 193.718 403.154 83.447 C 401.005 79.15 403.423 73.767 404.588 69.106 C 406.543 61.287 404.4 28.397 404.86 0" fill="none" vector-effect="non-scaling-stroke" stroke-width="15" stroke="rgb(16,108,5)" stroke-linejoin="miter" stroke-linecap="square" stroke-miterlimit="3"/></g><g opacity="0.09"><path d=" M 544.895 0 C 546.139 29.659 545.365 57.801 543.698 64.803 C 539.314 83.215 485.45 153.061 490.635 106.393 C 494.721 69.621 512.358 30.241 515.783 0" fill="none" vector-effect="non-scaling-stroke" stroke-width="15" stroke="rgb(16,108,5)" stroke-linejoin="miter" stroke-linecap="square" stroke-miterlimit="3"/></g><g opacity="0.09"><path d=" M 479.919 0 C 481.564 10.709 482.09 21.734 480.596 31.819 C 480.015 35.744 487.661 70.285 496.372 67.672 C 520.842 60.331 513.523 17.263 518.95 0" fill="none" vector-effect="non-scaling-stroke" stroke-width="15" stroke="rgb(16,108,5)" stroke-linejoin="miter" stroke-linecap="square" stroke-miterlimit="3"/></g><g opacity="0.09"><path d=" M 445.604 0 C 443.633 32.095 439.047 88.487 457.651 97.788 C 461.841 99.884 468.113 40.122 469.809 0" fill="none" vector-effect="non-scaling-stroke" stroke-width="15" stroke="rgb(16,108,5)" stroke-linejoin="miter" stroke-linecap="square" stroke-miterlimit="3"/></g></g><g><g opacity="0.09"><path d=" M 509.772 500 C 550.696 454.44 570.491 466.491 575.586 500" fill="none" vector-effect="non-scaling-stroke" stroke-width="15" stroke="rgb(16,108,5)" stroke-linejoin="miter" stroke-linecap="square" stroke-miterlimit="3"/></g><g opacity="0.09"><path d=" M 405.077 500 C 405.458 471.526 408.432 447.526 420.58 457.244 C 422.321 458.637 429.318 476.237 438.679 500" fill="none" vector-effect="non-scaling-stroke" stroke-width="15" stroke="rgb(16,108,5)" stroke-linejoin="miter" stroke-linecap="square" stroke-miterlimit="3"/></g><g opacity="0.09"><path d=" M 516 500 C 519.247 471.302 509.693 450.834 463.604 448.64 C 454.556 448.209 456.729 476.615 459.427 500" fill="none" vector-effect="non-scaling-stroke" stroke-width="15" stroke="rgb(16,108,5)" stroke-linejoin="miter" stroke-linecap="square" stroke-miterlimit="3"/></g><g opacity="0.09"><path d=" M 519.167 500 C 519.644 498.414 520.238 497.062 520.968 495.966 C 541.546 465.099 451.109 410.714 528.139 419.957 C 538.678 421.222 543.558 461.863 545.112 500" fill="none" vector-effect="non-scaling-stroke" stroke-width="15" stroke="rgb(16,108,5)" stroke-linejoin="miter" stroke-linecap="square" stroke-miterlimit="3"/></g><g opacity="0.09"><path d=" M 470.025 500 C 470.745 483.289 470.669 470.003 469.34 465.849 C 450.2 419.367 473.774 457.221 480.135 500" fill="none" vector-effect="non-scaling-stroke" stroke-width="15" stroke="rgb(16,108,5)" stroke-linejoin="miter" stroke-linecap="square" stroke-miterlimit="3"/></g><g opacity="0.09"><path d=" M 446.394 481.624 C 446.633 485.493 446.305 491.993 445.82 500" fill="none" vector-effect="non-scaling-stroke" stroke-width="15" stroke="rgb(16,108,5)" stroke-linejoin="miter" stroke-linecap="square" stroke-miterlimit="3"/></g></g><g opacity="0.09"><path d=" M 338.163 202.266 C 339.357 221.621 326.385 306.804 349.636 318.43 C 355.562 321.393 365.649 200.678 361.109 186.491 C 337.173 128.361 380.038 202.128 372.582 252.46 C 372 256.385 379.646 290.926 388.357 288.313 C 415.039 280.309 403.926 229.825 412.737 216.607 C 433.315 185.741 342.878 131.355 419.908 140.599 C 438.635 142.846 439.496 269.431 435.683 285.445 C 431.299 303.857 377.435 373.703 382.621 327.035 C 390.584 255.366 450.027 173.789 355.372 169.281 C 342.829 168.684 351.851 223.509 353.938 243.856 C 358.037 283.818 350.275 414.36 295.139 304.089 C 292.991 299.792 295.408 294.408 296.573 289.747 C 300.479 274.125 288.027 158.429 312.349 177.886 C 319.738 183.797 421.866 481.776 378.318 255.329 C 377.547 251.318 380.17 247.123 382.621 243.856 C 523.465 56.063 467.262 429.406 385.489 398.741 C 346.992 384.304 320.059 372.492 296.573 355.717 C 296.573 355.717 306.612 230.949 306.612 230.949 C 306.612 230.949 371.148 295.484 371.148 295.484 C 371.148 295.484 388.357 420.252 388.357 420.252 C 428.381 375.52 414.747 246.151 399.83 242.421 C 275.685 211.385 343.694 423.6 352.504 403.043 C 429.743 222.819 415.701 433.016 418.474 428.857 C 451.789 378.885 479.603 231.23 398.396 335.639 C 386.598 350.808 371.57 372.765 372.582 393.004 C 376.174 464.849 350.972 401.13 349.636 381.531 C 348.752 368.575 350.953 354.518 345.334 342.81 C 343.426 338.837 336.183 343.373 332.426 345.678 C 314.901 356.432 297.96 368.287 282.232 381.531 C 266.125 395.096 319.812 483.247 335.295 477.617 C 349.223 472.552 302.939 407.917 320.954 388.702 C 416.112 287.199 348.884 488.09 407.001 467.578 C 431.003 459.107 413.576 371.492 395.528 371.492 C 359.555 371.492 318.063 440.308 349.636 471.881 C 403.324 525.569 417.737 390.799 418.474 390.136 C 456.376 356.023 456.283 458.156 458.629 461.842 C 458.629 461.842 470.102 312.693 470.102 312.693 C 468.545 295.565 472.145 290.716 478.707 275.406 C 484.148 262.711 452.893 305.946 452.893 367.19" fill="none" vector-effect="non-scaling-stroke" stroke-width="15" stroke="rgb(16,108,5)" stroke-linejoin="miter" stroke-linecap="square" stroke-miterlimit="3"/></g><g opacity="0.09"><path d=" M 179.205 132.207 C 180.399 151.562 167.427 236.745 190.678 248.371 C 196.604 251.334 206.691 130.619 202.151 116.432 C 178.215 58.302 221.081 132.069 213.624 182.401 C 213.042 186.326 220.688 220.867 229.399 218.254 C 256.081 210.25 244.968 159.766 253.779 146.548 C 274.357 115.682 183.92 61.296 260.95 70.54 C 279.677 72.787 280.538 199.372 276.725 215.386 C 272.341 233.798 218.477 303.644 223.663 256.976 C 231.626 185.307 291.069 103.73 196.415 99.222 C 183.871 98.625 192.893 153.45 194.98 173.797 C 199.079 213.759 191.317 344.301 136.181 234.03 C 134.033 229.733 136.45 224.349 137.616 219.688 C 141.521 204.066 129.069 88.37 153.391 107.827 C 160.78 113.738 262.908 411.717 219.36 185.27 C 218.589 181.259 221.212 177.064 223.663 173.797 C 364.507 -13.996 308.304 359.347 226.531 328.682 C 188.035 314.245 161.101 302.433 137.616 285.658 C 137.616 285.658 147.654 160.89 147.654 160.89 C 147.654 160.89 212.19 225.425 212.19 225.425 C 212.19 225.425 229.399 350.193 229.399 350.193 C 269.423 305.461 255.789 176.092 240.872 172.362 C 116.727 141.326 184.736 353.541 193.546 332.984 C 270.785 152.76 256.743 362.957 259.516 358.798 C 292.831 308.826 320.645 161.171 239.438 265.58 C 227.64 280.749 212.612 302.706 213.624 322.945 C 217.216 394.79 192.014 331.071 190.678 311.472 C 189.794 298.516 191.995 284.458 186.376 272.751 C 184.469 268.778 177.225 273.314 173.469 275.619 C 155.944 286.373 139.002 298.228 123.274 311.472 C 107.167 325.037 160.854 413.188 176.337 407.558 C 190.265 402.493 143.981 337.858 161.996 318.643 C 257.154 217.14 189.926 418.031 248.043 397.519 C 272.045 389.048 254.618 301.433 236.57 301.433 C 200.597 301.433 159.105 370.249 190.678 401.822 C 244.366 455.51 258.779 320.74 259.516 320.077 C 297.419 285.964 297.325 388.097 299.671 391.783 C 299.671 391.783 311.144 242.634 311.144 242.634 C 309.587 225.506 313.187 220.657 319.749 205.347 C 325.19 192.652 293.935 235.887 293.935 297.131" fill="none" vector-effect="non-scaling-stroke" stroke-width="15" stroke="rgb(16,108,5)" stroke-linejoin="miter" stroke-linecap="square" stroke-miterlimit="3"/></g><g opacity="0.09"><path d=" M 255.327 181.753 C 256.521 201.108 243.548 286.291 266.799 297.916 C 272.725 300.879 282.812 180.164 278.272 165.977 C 254.337 107.848 297.202 181.615 289.745 231.947 C 289.164 235.872 296.81 270.413 305.521 267.8 C 332.203 259.795 321.089 209.311 329.901 196.094 C 350.478 165.228 260.041 110.842 337.071 120.085 C 355.799 122.333 356.66 248.918 352.847 264.932 C 348.463 283.343 294.599 353.189 299.784 306.521 C 307.747 234.852 367.19 153.275 272.536 148.768 C 259.993 148.171 269.015 202.995 271.102 223.342 C 275.2 263.304 267.438 393.846 212.303 283.575 C 210.154 279.278 212.572 273.895 213.737 269.234 C 217.643 253.612 205.19 137.915 229.512 157.373 C 236.901 163.284 339.029 461.263 295.482 234.815 C 294.71 230.804 297.333 226.61 299.784 223.342 C 440.628 35.55 384.425 408.892 302.652 378.227 C 264.156 363.791 237.222 351.979 213.737 335.203 C 213.737 335.203 223.776 210.435 223.776 210.435 C 223.776 210.435 288.311 274.97 288.311 274.97 C 288.311 274.97 305.521 399.739 305.521 399.739 C 345.545 355.006 331.91 225.637 316.994 221.908 C 192.849 190.872 260.858 403.086 269.668 382.529 C 346.907 202.305 332.864 412.503 335.637 408.344 C 368.952 358.371 396.767 210.716 315.56 315.126 C 303.761 330.295 288.733 352.252 289.745 372.491 C 293.338 444.336 268.136 380.616 266.799 361.018 C 265.916 348.061 268.117 334.004 262.497 322.296 C 260.59 318.323 253.347 322.86 249.59 325.165 C 232.065 335.919 215.123 347.773 199.396 361.018 C 183.288 374.582 236.975 462.734 252.458 457.104 C 266.387 452.039 220.102 387.404 238.117 368.188 C 333.276 266.686 266.047 467.577 324.164 447.065 C 348.166 438.594 330.74 350.979 312.691 350.979 C 276.718 350.979 235.226 419.794 266.799 451.367 C 320.487 505.055 334.9 370.286 335.637 369.622 C 373.54 335.51 373.447 437.642 375.793 441.328 C 375.793 441.328 387.266 292.18 387.266 292.18 C 385.708 275.051 389.309 270.203 395.87 254.893 C 401.311 242.197 370.056 285.432 370.056 346.676" fill="none" vector-effect="non-scaling-stroke" stroke-width="15" stroke="rgb(16,108,5)" stroke-linejoin="miter" stroke-linecap="square" stroke-miterlimit="3"/></g><g><g opacity="0.09"><path d=" M 256.239 0 C 273.951 38.559 360.014 283.409 319.406 72.248 C 318.635 68.238 321.258 64.043 323.709 60.775 C 464.553 -127.017 408.35 246.325 326.577 215.66 C 288.08 201.224 261.147 189.412 237.662 172.637 C 237.662 172.637 247.7 47.868 247.7 47.868 C 247.7 47.868 312.236 112.404 312.236 112.404 C 312.236 112.404 329.445 237.172 329.445 237.172 C 369.469 192.439 355.835 63.07 340.918 59.341 C 216.773 28.305 284.782 240.52 293.592 219.963 C 370.831 39.738 356.789 249.936 359.562 245.777 C 392.877 195.804 420.691 48.15 339.484 152.559 C 327.686 167.728 312.658 189.685 313.67 209.924 C 317.262 281.769 292.06 218.049 290.724 198.451 C 289.84 185.494 292.041 171.437 286.422 159.73 C 284.514 155.756 277.271 160.293 273.515 162.598 C 255.989 173.352 239.048 185.207 223.32 198.451 C 207.213 212.015 260.9 300.167 276.383 294.537 C 290.311 289.472 244.027 224.837 262.042 205.622 C 357.2 104.119 289.972 305.01 348.089 284.498 C 372.091 276.027 354.664 188.412 336.616 188.412 C 300.643 188.412 259.151 257.228 290.724 288.801 C 344.412 342.489 358.825 207.719 359.562 207.056 C 397.464 172.943 397.371 275.075 399.717 278.762 C 399.717 278.762 411.19 129.613 411.19 129.613 C 409.633 112.485 413.233 107.636 419.795 92.326 C 425.236 79.631 393.981 122.865 393.981 184.11" fill="none" vector-effect="non-scaling-stroke" stroke-width="15" stroke="rgb(16,108,5)" stroke-linejoin="miter" stroke-linecap="square" stroke-miterlimit="3"/></g><g opacity="0.09"><path d=" M 290.115 0 C 289.025 17.442 293.614 47.005 295.026 60.775 C 299.125 100.738 291.363 231.279 236.227 121.008 C 234.079 116.711 236.496 111.328 237.662 106.667 C 240.668 94.642 233.982 23.326 241.838 0" fill="none" vector-effect="non-scaling-stroke" stroke-width="15" stroke="rgb(16,108,5)" stroke-linejoin="miter" stroke-linecap="square" stroke-miterlimit="3"/></g><g opacity="0.09"><path d=" M 375.176 0 C 379.713 38.988 379.158 92.34 376.771 102.365 C 372.387 120.776 318.523 190.623 323.709 143.954 C 329.878 88.426 366.952 26.949 339.272 0" fill="none" vector-effect="non-scaling-stroke" stroke-width="15" stroke="rgb(16,108,5)" stroke-linejoin="miter" stroke-linecap="square" stroke-miterlimit="3"/></g><g opacity="0.09"><path d=" M 303.352 0 C 309.835 17.935 317.111 46.153 313.67 69.38 C 313.088 73.305 320.734 107.846 329.445 105.233 C 356.127 97.228 345.014 46.745 353.825 33.527 C 360.324 23.78 355.751 11.687 348.831 0" fill="none" vector-effect="non-scaling-stroke" stroke-width="15" stroke="rgb(16,108,5)" stroke-linejoin="miter" stroke-linecap="square" stroke-miterlimit="3"/></g><g opacity="0.09"><path d=" M 279.251 19.186 C 280.445 38.541 267.473 123.724 290.724 135.35 C 296.65 138.312 306.737 17.597 302.197 3.411 C 301.706 2.217 301.242 1.08 300.809 0" fill="none" vector-effect="non-scaling-stroke" stroke-width="15" stroke="rgb(16,108,5)" stroke-linejoin="miter" stroke-linecap="square" stroke-miterlimit="3"/></g></g><g><g opacity="0.09"><path d=" M 242.055 500 C 244.402 493.011 248.053 490.325 253.653 494.806 C 254.152 495.205 255.083 496.935 256.455 500" fill="none" vector-effect="non-scaling-stroke" stroke-width="15" stroke="rgb(16,108,5)" stroke-linejoin="miter" stroke-linecap="square" stroke-miterlimit="3"/></g><g opacity="0.09"><path d=" M 339.489 500 C 331.494 492.14 317.993 487.216 296.677 486.201 C 292.623 486.008 290.822 491.605 290.331 500" fill="none" vector-effect="non-scaling-stroke" stroke-width="15" stroke="rgb(16,108,5)" stroke-linejoin="miter" stroke-linecap="square" stroke-miterlimit="3"/></g><g opacity="0.09"><path d=" M 349.047 500 C 334.201 474.657 308.508 451.194 361.212 457.519 C 368.217 458.359 372.722 476.593 375.392 500" fill="none" vector-effect="non-scaling-stroke" stroke-width="15" stroke="rgb(16,108,5)" stroke-linejoin="miter" stroke-linecap="square" stroke-miterlimit="3"/></g><g opacity="0.09"><path d=" M 301.025 500 C 290.02 472.658 296.295 479.852 303.569 500" fill="none" vector-effect="non-scaling-stroke" stroke-width="15" stroke="rgb(16,108,5)" stroke-linejoin="miter" stroke-linecap="square" stroke-miterlimit="3"/></g></g><g opacity="0.09"><path d=" M 79.159 258.232 C 80.353 277.587 67.381 362.77 90.632 374.395 C 96.558 377.358 106.645 256.643 102.105 242.456 C 78.169 184.327 121.035 258.093 113.578 308.426 C 112.996 312.351 120.643 346.892 129.353 344.279 C 156.036 336.274 144.922 285.79 153.733 272.573 C 174.311 241.706 83.874 187.321 160.904 196.564 C 179.631 198.812 180.492 325.397 176.679 341.41 C 172.295 359.822 118.431 429.668 123.617 383 C 131.58 311.331 191.023 229.754 96.369 225.247 C 83.825 224.649 92.847 279.474 94.934 299.821 C 99.033 339.783 91.271 470.325 36.136 360.054 C 33.987 355.757 36.404 350.374 37.57 345.713 C 41.475 330.091 29.023 214.394 53.345 233.852 C 60.734 239.763 162.862 537.742 119.315 311.294 C 118.543 307.283 121.166 303.089 123.617 299.821 C 264.461 112.029 208.258 485.371 126.485 454.706 C 87.989 440.27 61.055 428.458 37.57 411.682 C 37.57 411.682 47.609 286.914 47.609 286.914 C 47.609 286.914 112.144 351.449 112.144 351.449 C 112.144 351.449 129.353 476.218 129.353 476.218 C 169.377 431.485 155.743 302.116 140.826 298.387 C 16.682 267.351 84.69 479.565 93.5 459.008 C 170.739 278.784 156.697 488.982 159.47 484.823 C 192.785 434.85 220.599 287.195 139.392 391.605 C 127.594 406.774 112.566 428.731 113.578 448.97 C 117.17 520.815 91.968 457.095 90.632 437.497 C 89.749 424.54 91.949 410.483 86.33 398.775 C 84.423 394.802 77.179 399.338 73.423 401.644 C 55.898 412.397 38.956 424.252 23.228 437.497 C 7.121 451.061 60.808 539.213 76.291 533.583 C 90.219 528.518 43.935 463.882 61.95 444.667 C 157.108 343.165 89.88 544.056 147.997 523.544 C 171.999 515.073 154.572 427.458 136.524 427.458 C 100.551 427.458 59.059 496.273 90.632 527.846 C 144.32 581.534 158.733 446.765 159.47 446.101 C 197.373 411.989 197.279 514.121 199.625 517.807 C 199.625 517.807 211.098 368.659 211.098 368.659 C 209.541 351.53 213.141 346.682 219.703 331.372 C 225.144 318.676 193.889 361.911 193.889 423.155" fill="none" vector-effect="non-scaling-stroke" stroke-width="15" stroke="rgb(16,108,5)" stroke-linejoin="miter" stroke-linecap="square" stroke-miterlimit="3"/></g></g></g></svg>