<?xml version="1.0" standalone="no"?><!-- Generator: Gravit.io --><svg xmlns="http://www.w3.org/2000/svg" xmlns:xlink="http://www.w3.org/1999/xlink" style="isolation:isolate" viewBox="0 0 500 500" width="500px" height="500px"><defs><clipPath id="_clipPath_HdI8CWNSutkno9ObLtkFpf94yKOh6LNy"><rect width="500" height="500"/></clipPath></defs><g clip-path="url(#_clipPath_HdI8CWNSutkno9ObLtkFpf94yKOh6LNy)"><path d=" M 0 500 L 500 500 L 500 0 L 0 0 L 0 500 L 0 500 Z " fill="rgb(106,106,106)"/><g><g opacity="0.36"><path d=" M 73.8 58.4 C 73.697 60.67 74.822 64.956 75.8 67.4 C 77.113 70.683 76.357 72.852 76.8 76.4 C 78.091 86.728 82.458 93.769 79.8 104.4 C 78.784 108.465 76.8 112.271 76.8 116.4 C 69.615 145.14 56.8 171.07 56.8 197.4 C 56.8 227.35 43.692 252.859 48.8 278.4 C 51.781 293.304 53.8 305.432 53.8 315.4 C 53.8 320.528 55.553 333.141 58.8 323.4 C 66.305 300.884 74.722 283.712 79.8 263.4 C 81.342 257.231 83.036 255.501 83.8 253.4 C 90.495 234.989 92.952 214.096 101.8 196.4 C 106.388 187.224 106.359 184.248 108.8 181.4 C 123.665 164.058 128.677 145.262 131.8 123.4 C 135.804 95.373 131.325 74.925 116.8 60.4 C 106.184 49.784 91.66 46.26 83.8 38.4 C 77.549 32.149 66.8 24.928 66.8 18.4 L 66.8 17.4 L 65.8 16.4 L 73.8 58.4 Z " fill="rgb(113,113,113)"/></g><g opacity="0.36"><path d=" M 222.042 393.923 C 221.554 391.704 219.358 387.855 217.781 385.747 C 215.663 382.916 215.832 380.625 214.486 377.313 C 210.566 367.671 204.525 362 204.341 351.043 C 204.271 346.854 205.202 342.664 204.133 338.676 C 203.635 309.056 209.302 280.692 202.487 255.259 C 194.736 226.33 200.795 198.297 189.25 174.949 C 182.514 161.324 177.424 150.132 174.844 140.504 C 173.517 135.55 168.559 123.821 167.944 134.07 C 166.522 157.762 162.837 176.527 163.189 197.461 C 163.296 203.819 162.108 205.928 161.913 208.156 C 160.212 227.672 163.246 248.489 159.279 267.872 C 157.223 277.923 158.021 280.79 156.4 284.173 C 146.53 304.771 146.554 324.224 149.195 346.149 C 152.582 374.258 162.201 392.85 179.99 403.12 C 192.991 410.627 207.933 410.272 217.559 415.83 C 225.215 420.25 237.467 424.443 239.156 430.748 L 239.415 431.714 L 240.64 432.421 L 222.042 393.923 Z " fill="rgb(113,113,113)"/></g><g opacity="0.36"><path d=" M 51.152 0 C 52.11 0.886 53.031 1.841 53.916 2.85 C 67.463 18.291 70.599 38.988 64.775 66.694 C 60.233 88.306 54.006 106.735 38.042 123.071 C 35.42 125.754 35.255 128.725 30.078 137.582 C 20.095 154.664 16.28 175.352 8.399 193.287 C 7.499 195.334 5.697 196.949 3.755 203.005 C 2.597 206.616 1.337 210.117 0 213.562 L 0 83.808 L 0 83.808 C 3.612 74.835 7.291 65.66 10.349 56.122 C 10.618 52.002 12.846 48.333 14.125 44.343 C 17.471 33.908 13.573 26.597 12.958 16.207 C 12.747 12.638 13.643 10.523 12.547 7.161 C 11.925 5.255 11.287 2.275 11.155 0 L 51.152 0 L 51.152 0 Z " fill="rgb(113,113,113)"/></g><g opacity="0.36"><path d=" M 47.618 500 C 37.986 490.735 25.563 486.353 18.888 478.745 C 13.058 472.1 2.803 464.193 3.228 457.679 L 3.294 456.681 L 2.361 455.618 L 7.605 498.05 C 7.545 498.588 7.547 499.244 7.621 500 L 47.618 500 L 47.618 500 Z " fill="rgb(113,113,113)"/></g><g opacity="0.36"><path d=" M 500 84.59 C 492.973 102.187 486.245 119.037 485.109 136.428 C 483.155 166.313 468.411 190.914 471.843 216.733 C 473.845 231.8 475.069 244.034 474.419 253.981 C 474.085 259.098 475.011 271.798 478.887 262.29 C 486.222 244.292 493.934 229.91 500 214.345 L 500 84.59 L 500 84.59 Z " fill="rgb(113,113,113)"/></g><g opacity="0.36"><path d=" M 210.822 147.24 C 210.718 149.51 211.844 153.796 212.822 156.24 C 214.135 159.523 213.378 161.692 213.822 165.24 C 215.113 175.568 219.479 182.609 216.822 193.24 C 215.805 197.304 213.822 201.11 213.822 205.24 C 206.637 233.979 193.822 259.91 193.822 286.24 C 193.822 316.189 180.714 341.699 185.822 367.24 C 188.802 382.144 190.822 394.272 190.822 404.24 C 190.822 409.368 192.575 421.981 195.822 412.24 C 203.327 389.723 211.744 372.552 216.822 352.24 C 218.364 346.07 220.057 344.341 220.822 342.24 C 227.516 323.829 229.974 302.936 238.822 285.24 C 243.41 276.064 243.38 273.088 245.822 270.24 C 260.686 252.898 265.699 234.101 268.822 212.24 C 272.826 184.212 268.346 163.764 253.822 149.24 C 243.206 138.624 228.682 135.1 220.822 127.24 C 214.571 120.989 203.822 113.768 203.822 107.24 L 203.822 106.24 L 202.822 105.24 L 210.822 147.24 Z " fill="rgb(113,113,113)"/></g><g opacity="0.36"><path d=" M 434.629 245.417 C 433.074 243.528 429.082 240.913 426.537 239.665 C 423.118 237.988 422.159 235.708 419.244 233.192 C 410.761 225.867 402.19 223.389 396.644 212.973 C 394.524 208.99 393.364 204.516 390.385 201.215 C 375.393 173.056 366.929 143.081 347.932 122.033 C 326.324 98.091 318.397 68.24 295.887 51.508 C 282.751 41.744 272.386 33.506 265.194 25.537 C 261.494 21.438 250.993 12.62 255.425 22.749 C 265.671 46.164 271.332 65.964 281.927 85.866 C 285.145 91.91 285.039 94.515 285.944 96.746 C 293.876 116.294 306.986 134.769 312.68 155.299 C 315.633 165.945 317.803 168.303 317.906 172.341 C 318.536 196.929 328.09 215.571 341.366 235.301 C 358.387 260.596 376.721 273.71 398.811 274.842 C 414.957 275.669 429.111 268.007 441.065 268.62 C 450.572 269.107 464.375 267.124 469.085 272.343 L 469.806 273.142 L 471.327 273.22 L 434.629 245.417 Z " fill="rgb(113,113,113)"/></g><g opacity="0.36"><path d=" M 167.112 2.01 C 168.543 7.414 170.077 12.845 171.841 18.253 C 174.036 21.751 174.378 26.03 175.678 30.013 C 179.076 40.43 186.517 44.074 193.1 52.137 C 195.361 54.906 195.873 57.146 198.73 59.229 C 200.857 60.78 204.088 63.812 205.207 65.79 L 234.306 97.115 L 232.927 96.8 L 232.396 95.953 C 228.926 90.423 215.983 90.019 207.366 88.046 C 196.531 85.565 182.354 90.299 167.72 86.948 C 147.697 82.364 133.036 67.424 121.532 41.554 C 115.601 28.218 111.081 15.578 109.699 2.01 L 167.112 2.01 L 167.112 2.01 Z " fill="rgb(113,113,113)"/></g><g opacity="0.36"><path d=" M 167.112 500 C 161.122 477.267 157.041 455.021 145.734 437.001 C 129.817 411.631 127.363 383.055 109.463 364.135 C 99.017 353.095 90.861 343.894 85.563 335.451 C 82.837 331.107 74.649 321.354 77.076 331.331 C 82.685 354.393 84.681 373.412 91.175 393.317 C 93.147 399.362 92.632 401.727 93.101 403.914 C 97.215 423.067 106.237 442.071 108.147 461.763 C 109.138 471.974 110.744 474.48 110.19 478.19 C 109.045 485.85 108.949 493.05 109.699 500 L 167.112 500 L 167.112 500 Z " fill="rgb(113,113,113)"/></g><g opacity="0.36"><path d=" M 320.169 461.502 C 319.681 459.282 317.485 455.434 315.908 453.326 C 313.79 450.494 313.959 448.204 312.613 444.891 C 308.693 435.25 302.652 429.578 302.468 418.622 C 302.397 414.433 303.329 410.243 302.26 406.254 C 301.762 376.634 307.429 348.271 300.614 322.838 C 292.862 293.909 298.921 265.876 287.377 242.528 C 280.64 228.903 275.551 217.711 272.971 208.082 C 271.644 203.129 266.686 191.4 266.071 201.649 C 264.649 225.341 260.963 244.105 261.316 265.04 C 261.423 271.398 260.234 273.507 260.04 275.734 C 258.338 295.25 261.373 316.068 257.406 335.451 C 255.349 345.501 256.148 348.368 254.527 351.751 C 244.657 372.35 244.681 391.803 247.322 413.728 C 250.709 441.837 260.328 460.429 278.117 470.699 C 291.118 478.205 306.06 477.851 315.686 483.408 C 323.342 487.828 335.594 492.021 337.283 498.327 L 337.542 499.293 L 338.767 500 L 320.169 461.502 Z " fill="rgb(113,113,113)"/></g><g opacity="0.34"><path d=" M 449.234 2.01 C 452.171 10.528 454.808 18.615 458.745 26.489 C 465.352 39.704 462.745 48.624 462.745 59.489 C 462.745 72.958 449.745 81.05 449.745 91.489 C 449.745 98.284 438.588 110.332 434.745 106.489 C 425.26 97.004 414.745 84.759 414.745 70.489 C 414.745 54.268 412.654 38.352 404.745 26.489 C 404.165 25.619 398.857 18.94 398.745 18.489 C 396.943 11.284 389.629 6.57 385.132 2.01 L 449.234 2.01 L 449.234 2.01 Z " fill="rgb(115,115,115)"/></g><g opacity="0.34"><path d=" M 449.234 500 C 446.67 492.534 443.866 484.722 439.745 476.479 C 438.528 474.046 438.02 471.03 436.745 468.479 C 430.857 456.704 418.745 434.741 418.745 420.479 C 418.745 408.278 421.745 397.551 421.745 384.479 C 421.745 374.551 423.415 361.654 419.745 352.479 C 418.678 349.812 413.745 343.25 413.745 337.479 C 406.988 326.218 401.385 311.581 394.745 302.479 C 396.381 304.024 393.745 303.599 393.745 300.479 C 393.745 299.798 385.957 298.479 384.745 298.479 C 378.078 298.479 371.411 298.479 363.745 298.479 C 355.874 298.479 350.745 295.316 350.745 285.479 C 350.745 283.819 352.662 291.23 353.745 294.479 C 357.367 305.347 360.058 317.673 362.745 336.479 C 365.36 354.789 373.873 386.093 366.745 407.479 C 365.538 411.098 365.309 413.349 363.745 416.479 C 356.239 431.49 362.745 447.854 362.745 464.479 C 362.745 476.127 377.853 485.75 381.745 495.479 C 382.362 497.023 383.564 498.501 385.132 500 L 449.234 500 L 449.234 500 Z " fill="rgb(115,115,115)"/></g></g><g><g opacity="0.05"><path d=" M 232.8 165.9 C 234.96 174.308 232.8 190.147 232.8 198.15 C 232.8 217.336 228.666 236.053 223.8 250.65 C 222.092 255.773 220.943 258.773 220.05 261.9 C 219.227 264.78 217.777 268.314 216.3 270.9 C 212.962 276.742 202.8 291.651 202.8 298.65 C 202.8 302.118 200.209 307.856 199.8 309.9 C 199.8 309.9 196.8 323.4 196.8 323.4 C 196.8 323.4 202.8 308.4 202.8 308.4 C 202.8 299.338 213.791 287.919 217.05 281.4 C 222.735 270.031 229.901 260.846 233.55 249.9 C 238.547 234.91 239.55 223.865 239.55 210.15 C 239.55 194.762 235.8 181.268 232.8 165.9 Z " fill="rgb(255,255,255)"/></g><g opacity="0.05"><path d=" M 82.533 67.759 C 86.59 75.433 88.176 91.34 90.039 99.123 C 94.505 117.782 94.841 136.947 93.506 152.276 C 93.038 157.655 92.619 160.841 92.478 164.09 C 92.348 167.082 91.76 170.857 90.925 173.715 C 89.039 180.174 82.626 197.039 84.255 203.846 C 85.062 207.218 83.878 213.402 83.956 215.485 C 83.956 215.485 84.181 229.312 84.181 229.312 C 84.181 229.312 86.525 213.328 86.525 213.328 C 84.415 204.514 92.446 190.851 94.099 183.753 C 96.981 171.372 101.813 160.771 102.814 149.277 C 104.184 133.536 102.589 122.561 99.397 109.222 C 95.815 94.257 89.027 82.006 82.533 67.759 Z " fill="rgb(255,255,255)"/></g><g opacity="0.02"><path d=" M 118.2 266.1 C 113.955 276.005 117.242 295.6 118.95 305.85 C 123.61 319.831 127.2 339.833 127.2 352.35 C 127.2 364.843 130.713 382.132 134.7 392.1 C 140.355 406.238 145.484 422.384 153.45 430.35 C 155.501 432.401 157.574 436.162 158.7 437.85 C 160.555 440.632 161.252 443.178 163.2 446.1 C 164.776 448.463 167.162 450.274 168.45 452.85 C 168.45 452.85 183.45 471.6 183.45 471.6 C 183.45 459.493 178.437 452.812 175.2 443.1 C 171.062 430.687 160.639 421.479 155.7 411.6 C 153.638 407.476 152.039 403.616 151.2 401.1 C 149.759 396.778 146.245 380.395 143.7 377.85 C 141.879 376.029 141.797 369.083 141.45 367.35 C 140.303 361.613 138.837 351.431 135.45 346.35 C 129.303 337.13 127.2 315.516 127.2 307.35 C 127.2 292.628 127.58 279.191 129.45 266.1 C 129.704 264.32 129.454 259.342 130.2 257.85 C 137.358 243.534 134.851 226.049 141.45 212.85 C 144.753 206.245 136.391 207.879 132.45 209.85 C 126.696 212.727 127.2 218.268 127.2 224.1 C 127.2 237.4 129.921 248.379 121.2 257.1 L 120.45 257.85 L 118.2 266.1 Z " fill="rgb(255,255,255)"/></g><g opacity="0.13"><path d=" M 272.8 318.8 C 272.431 335.209 271.8 353.298 271.8 369.8 C 271.8 389.373 269.79 410.779 277.8 426.8 C 284.605 440.409 279.8 423.77 279.8 417.8 C 279.8 408.495 275.8 399.312 275.8 390.8 C 275.8 387.467 275.8 384.133 275.8 380.8 C 275.8 364.467 275.8 350.133 275.8 335.8 C 275.8 331.467 275.8 328.133 272.8 318.8 Z " fill="rgb(157,155,155)"/></g><g opacity="0.13"><path d=" M 379.8 323.8 C 381.475 328.453 384.8 333.875 384.8 338.8 C 384.8 342.489 385.8 344.169 385.8 347.8 C 385.8 350.133 385.8 352.467 385.8 354.8 C 385.8 358.617 385.27 354.8 386.8 354.8 C 388.663 347.347 389.8 343.772 389.8 339.8 C 389.8 334.647 389.87 330.94 387.8 326.8 C 387.3 325.801 381.8 321.303 381.8 319.8 L 381.8 318.8 L 379.8 323.8 Z " fill="rgb(157,155,155)"/></g><g opacity="0.13"><path d=" M 403.8 405.8 C 403.8 405.8 397.8 442.8 397.8 442.8 C 397.605 446.106 397.8 449.489 397.8 452.8 C 397.8 465.949 412.8 491.324 412.8 482.8 C 412.8 478.156 408.8 476.381 408.8 472.8 C 408.8 470.749 405.949 450.949 404.8 449.8 C 400.9 445.9 400.8 429.991 400.8 425.8 C 400.8 422.467 400.8 419.133 400.8 415.8 C 400.8 411.678 400.925 409.426 403.8 405.8 Z " fill="rgb(157,155,155)"/></g><g opacity="0.13"><path d=" M 427.8 21.8 C 430.342 29.992 430.8 42.889 430.8 51.8 C 430.8 54.638 430.52 55.64 431.8 51.8 C 436.163 43.075 433.541 23.961 427.8 21.8 Z " fill="rgb(157,155,155)"/></g><g opacity="0.13"><path d=" M 313.8 104.8 C 315.605 117.607 326.647 133.342 330.8 145.8 C 340.997 176.392 341.427 188.054 347.8 200.8 C 352.849 210.899 361.244 216.8 369.8 216.8 C 385.521 216.8 374.051 216.051 369.8 211.8 C 362.501 204.501 352.8 200.204 352.8 187.8 C 352.8 172.837 346.194 156.375 342.8 142.8 C 338.867 127.069 331.342 117.824 320.8 111.8 C 319.989 111.337 312.8 107.967 312.8 107.8 L 312.8 106.8 L 313.8 104.8 Z " fill="rgb(157,155,155)"/></g><g opacity="0.13"><path d=" M 120.8 466.8 C 121.24 460.772 120.8 453.969 120.8 447.8 C 114.975 425.958 113.535 421.608 111.8 413.8 C 111.8 413.8 116.8 422.8 116.8 422.8 C 118.128 426.785 124.8 431.918 124.8 435.8 C 124.8 451.185 128.956 455.926 120.8 466.8 Z " fill="rgb(157,155,155)"/></g><g opacity="0.13"><path d=" M 36.8 426.8 C 35.871 422.132 35.8 416.593 35.8 411.8 C 33.662 379.725 26.748 349.904 34.8 333.8 C 35.8 331.8 40.8 310.8 40.8 310.8 C 34.203 312.685 32.898 313.556 30.8 318.8 C 30.523 319.492 30.133 320.133 29.8 320.8 C 22.123 336.153 25.425 358.3 28.8 371.8 C 32.552 386.806 34.8 403.826 34.8 414.8 C 34.8 415.8 36.8 417.8 36.8 426.8 Z " fill="rgb(157,155,155)"/></g><g opacity="0.13"><path d=" M 141.8 20.8 C 142.585 31.56 155.005 59.065 161.8 56.8 C 161.8 42.44 144.8 29.583 141.8 20.8 Z " fill="rgb(157,155,155)"/></g><g opacity="0.13"><path d=" M 233.8 21.8 C 235.978 30.514 229.8 31.312 229.8 39.8 C 229.8 44.141 232.379 50.589 234.8 51.8 C 237.195 52.998 243.8 53.352 243.8 48.8 C 243.8 40.268 236.8 40.995 236.8 33.8 C 236.8 31.917 244.139 28.123 244.8 26.8 C 247.298 21.803 242.025 19.025 239.8 16.8 C 235.679 12.679 230.486 15.271 233.8 21.8 Z " fill="rgb(157,155,155)"/></g></g><g style="opacity:0.5;"><g opacity="0.2"><circle vector-effect="non-scaling-stroke" cx="325.49999999999994" cy="275.49999999999994" r="13.5" fill="rgb(64,64,64)" stroke-width="5" stroke="rgb(0,0,0)" stroke-linejoin="miter" stroke-linecap="square" stroke-miterlimit="3"/></g><g opacity="0.2"><circle vector-effect="non-scaling-stroke" cx="447.48014583858367" cy="160.5" r="13.5" fill="rgb(64,64,64)" stroke-width="5" stroke="rgb(0,0,0)" stroke-linejoin="miter" stroke-linecap="square" stroke-miterlimit="3"/></g><g opacity="0.2"><circle vector-effect="non-scaling-stroke" cx="211.49999999999994" cy="450.5" r="13.5" fill="rgb(64,64,64)" stroke-width="5" stroke="rgb(0,0,0)" stroke-linejoin="miter" stroke-linecap="square" stroke-miterlimit="3"/></g><g opacity="0.2"><circle vector-effect="non-scaling-stroke" cx="160.49999999999994" cy="112.5" r="13.5" fill="rgb(64,64,64)" stroke-width="5" stroke="rgb(0,0,0)" stroke-linejoin="miter" stroke-linecap="square" stroke-miterlimit="3"/></g></g></g></svg>