<?xml version="1.0" encoding="UTF-8" standalone="no"?>
<!DOCTYPE svg PUBLIC "-//W3C//DTD SVG 1.1//EN" "http://www.w3.org/Graphics/SVG/1.1/DTD/svg11.dtd">
<svg version="1.1" xmlns="http://www.w3.org/2000/svg" xmlns:xlink="http://www.w3.org/1999/xlink" preserveAspectRatio="xMidYMid meet" viewBox="0 0 1200 800" width="1200" height="800"><defs><path d="M535.64 400L480.92 477.44L479.22 474.82L476.42 470.1L473.79 465.27L471.35 460.33L469.09 455.28L467.03 450.13L465.17 444.89L463.51 439.55L462.05 434.13L460.81 428.62L459.78 423.03L458.97 417.37L458.39 411.65L458.04 405.85L457.92 400L458.04 394.15L458.39 388.35L458.97 382.63L459.78 376.97L460.81 371.38L462.05 365.87L463.51 360.45L465.17 355.11L467.03 349.87L469.09 344.72L471.35 339.67L473.79 334.73L476.42 329.9L479.22 325.18L480.92 322.56L535.64 400L535.64 400ZM723.58 329.9L726.21 334.73L728.65 339.67L730.91 344.72L732.97 349.87L734.83 355.11L736.49 360.45L737.95 365.87L739.19 371.38L740.22 376.97L741.03 382.63L741.61 388.35L741.96 394.15L742.08 400L741.96 405.85L741.61 411.65L741.03 417.37L740.22 423.03L739.19 428.62L737.95 434.13L736.49 439.55L734.83 444.89L732.97 450.13L730.91 455.28L728.65 460.33L726.21 465.27L723.58 470.1L720.78 474.82L719.08 477.44L664.36 400L719.08 322.56L720.78 325.18L723.58 329.9Z" id="aliUQMqQ2"></path><linearGradient id="gradientd3CLFv6fOj" gradientUnits="userSpaceOnUse" x1="600" y1="322.56" x2="600" y2="477.44"><stop style="stop-color: #0db0c8;stop-opacity: 1" offset="0%"></stop><stop style="stop-color: #004b53;stop-opacity: 1" offset="100%"></stop></linearGradient><path d="M600 582.18L532.73 666.36L461.82 666.36L461.82 500.36L532.73 400L461.82 299.64L461.82 133.64L532.73 133.64L600 217.82L667.27 133.64L738.18 133.64L738.18 299.64L667.27 400L738.18 500.36L738.18 666.36L667.27 666.36L667.27 666.36L600 582.18Z" id="bnshDxd5s"></path><linearGradient id="gradientbiN3mqFHJ" gradientUnits="userSpaceOnUse" x1="600" y1="133.64" x2="600" y2="666.36"><stop style="stop-color: #9ffffb;stop-opacity: 1" offset="0%"></stop><stop style="stop-color: #00c7db;stop-opacity: 1" offset="100%"></stop></linearGradient></defs><g><g><g><use xlink:href="#aliUQMqQ2" opacity="1" fill="url(#gradientd3CLFv6fOj)"></use><g><use xlink:href="#aliUQMqQ2" opacity="1" fill-opacity="0" stroke="#003e54" stroke-width="19" stroke-opacity="1"></use></g></g><g><use xlink:href="#bnshDxd5s" opacity="1" fill="url(#gradientbiN3mqFHJ)"></use><g><use xlink:href="#bnshDxd5s" opacity="1" fill-opacity="0" stroke="#002c50" stroke-width="28" stroke-opacity="1"></use></g></g></g></g></svg>