<?xml version="1.0" standalone="no"?><!-- Generator: Gravit.io --><svg xmlns="http://www.w3.org/2000/svg" xmlns:xlink="http://www.w3.org/1999/xlink" style="isolation:isolate" viewBox="0 0 4000 2000" width="4000px" height="2000px"><defs><clipPath id="_clipPath_wvJXv8aJyKSm3YfBxeq7UYKicgihCBpY"><rect width="4000" height="2000"/></clipPath></defs><g clip-path="url(#_clipPath_wvJXv8aJyKSm3YfBxeq7UYKicgihCBpY)"><g><g><g><g><linearGradient id="_lgradient_0" x1="0.5" y1="0" x2="0.49999999999999983" y2="1" gradientTransform="matrix(22.736,0,0,12.392,308,1130.116)" gradientUnits="userSpaceOnUse"><stop offset="0%" stop-opacity="1" style="stop-color:rgb(13,200,26)"/><stop offset="100%" stop-opacity="1" style="stop-color:rgb(0,83,6)"/></linearGradient><path d=" M 314.218 1136.312 L 309.84 1142.508 L 309.704 1142.298 L 309.48 1141.921 L 309.27 1141.534 L 309.075 1141.139 L 308.894 1140.735 L 308.729 1140.323 L 308.58 1139.904 L 308.447 1139.476 L 308.33 1139.043 L 308.231 1138.602 L 308.149 1138.154 L 308.084 1137.702 L 308.038 1137.244 L 308.01 1136.78 L 308 1136.312 L 308.01 1135.844 L 308.038 1135.38 L 308.084 1134.922 L 308.149 1134.469 L 308.231 1134.022 L 308.33 1133.581 L 308.447 1133.147 L 308.58 1132.72 L 308.729 1132.301 L 308.894 1131.889 L 309.075 1131.485 L 309.27 1131.089 L 309.48 1130.703 L 309.704 1130.325 L 309.84 1130.116 L 314.218 1136.312 L 314.218 1136.312 Z  M 329.256 1130.703 L 329.466 1131.089 L 329.661 1131.485 L 329.842 1131.889 L 330.007 1132.301 L 330.156 1132.72 L 330.289 1133.147 L 330.406 1133.581 L 330.505 1134.022 L 330.587 1134.469 L 330.652 1134.922 L 330.698 1135.38 L 330.726 1135.844 L 330.736 1136.312 L 330.726 1136.78 L 330.698 1137.244 L 330.652 1137.702 L 330.587 1138.154 L 330.505 1138.602 L 330.406 1139.043 L 330.289 1139.476 L 330.156 1139.904 L 330.007 1140.323 L 329.842 1140.735 L 329.661 1141.139 L 329.466 1141.534 L 329.256 1141.921 L 329.032 1142.298 L 328.896 1142.508 L 324.518 1136.312 L 328.896 1130.116 L 329.032 1130.325 L 329.256 1130.703 Z " fill="url(#_lgradient_0)"/><g><path d=" M 314.218 1136.312 L 309.84 1142.508 L 309.704 1142.298 L 309.48 1141.921 L 309.27 1141.534 L 309.075 1141.139 L 308.894 1140.735 L 308.729 1140.323 L 308.58 1139.904 L 308.447 1139.476 L 308.33 1139.043 L 308.231 1138.602 L 308.149 1138.154 L 308.084 1137.702 L 308.038 1137.244 L 308.01 1136.78 L 308 1136.312 L 308.01 1135.844 L 308.038 1135.38 L 308.084 1134.922 L 308.149 1134.469 L 308.231 1134.022 L 308.33 1133.581 L 308.447 1133.147 L 308.58 1132.72 L 308.729 1132.301 L 308.894 1131.889 L 309.075 1131.485 L 309.27 1131.089 L 309.48 1130.703 L 309.704 1130.325 L 309.84 1130.116 L 314.218 1136.312 L 314.218 1136.312 Z  M 329.256 1130.703 L 329.466 1131.089 L 329.661 1131.485 L 329.842 1131.889 L 330.007 1132.301 L 330.156 1132.72 L 330.289 1133.147 L 330.406 1133.581 L 330.505 1134.022 L 330.587 1134.469 L 330.652 1134.922 L 330.698 1135.38 L 330.726 1135.844 L 330.736 1136.312 L 330.726 1136.78 L 330.698 1137.244 L 330.652 1137.702 L 330.587 1138.154 L 330.505 1138.602 L 330.406 1139.043 L 330.289 1139.476 L 330.156 1139.904 L 330.007 1140.323 L 329.842 1140.735 L 329.661 1141.139 L 329.466 1141.534 L 329.256 1141.921 L 329.032 1142.298 L 328.896 1142.508 L 324.518 1136.312 L 328.896 1130.116 L 329.032 1130.325 L 329.256 1130.703 Z " fill="none" vector-effect="non-scaling-stroke" stroke-width="1.52" stroke="rgb(3,86,0)" stroke-linejoin="miter" stroke-linecap="butt" stroke-miterlimit="4"/></g></g><g><linearGradient id="_lgradient_1" x1="0.5" y1="0" x2="0.49999999999999983" y2="1" gradientTransform="matrix(22.112,0,0,42.624,308.312,1115)" gradientUnits="userSpaceOnUse"><stop offset="0%" stop-opacity="1" style="stop-color:rgb(132,255,113)"/><stop offset="100%" stop-opacity="1" style="stop-color:rgb(38,161,24)"/></linearGradient><path d=" M 319.368 1150.888 L 313.986 1157.624 L 308.312 1157.624 L 308.312 1144.342 L 313.986 1136.312 L 308.312 1128.282 L 308.312 1115 L 313.986 1115 L 319.368 1121.735 L 324.75 1115 L 330.424 1115 L 330.424 1128.282 L 324.75 1136.312 L 330.424 1144.342 L 330.424 1157.624 L 324.75 1157.624 L 324.75 1157.624 L 319.368 1150.888 Z " fill="url(#_lgradient_1)"/><g><mask id="_mask_pc02L7W4tiuXzlWvLdTeiW0VhKJqBrbY" x="-200%" y="-200%" width="400%" height="400%"><rect x="-200%" y="-200%" width="400%" height="400%" style="fill:white;"/><path d=" M 319.368 1150.888 L 313.986 1157.624 L 308.312 1157.624 L 308.312 1144.342 L 313.986 1136.312 L 308.312 1128.282 L 308.312 1115 L 313.986 1115 L 319.368 1121.735 L 324.75 1115 L 330.424 1115 L 330.424 1128.282 L 324.75 1136.312 L 330.424 1144.342 L 330.424 1157.624 L 324.75 1157.624 L 324.75 1157.624 L 319.368 1150.888 Z " fill="black" stroke="none"/></mask><path d=" M 319.368 1150.888 L 313.986 1157.624 L 308.312 1157.624 L 308.312 1144.342 L 313.986 1136.312 L 308.312 1128.282 L 308.312 1115 L 313.986 1115 L 319.368 1121.735 L 324.75 1115 L 330.424 1115 L 330.424 1128.282 L 324.75 1136.312 L 330.424 1144.342 L 330.424 1157.624 L 324.75 1157.624 L 324.75 1157.624 L 319.368 1150.888 Z " fill="none" mask="url(#_mask_pc02L7W4tiuXzlWvLdTeiW0VhKJqBrbY)" vector-effect="non-scaling-stroke" stroke-width="4.48" stroke="rgb(2,63,0)" stroke-linejoin="miter" stroke-linecap="butt" stroke-miterlimit="4"/><path d=" M 319.368 1150.888 L 313.986 1157.624 L 308.312 1157.624 L 308.312 1144.342 L 313.986 1136.312 L 308.312 1128.282 L 308.312 1115 L 313.986 1115 L 319.368 1121.735 L 324.75 1115 L 330.424 1115 L 330.424 1128.282 L 324.75 1136.312 L 330.424 1144.342 L 330.424 1157.624 L 324.75 1157.624 L 324.75 1157.624 L 319.368 1150.888 Z " fill="none"/></g></g></g></g><g><g><g><linearGradient id="_lgradient_2" x1="0.5" y1="0" x2="0.49999999999999983" y2="1" gradientTransform="matrix(22.736,0,0,12.392,252.264,1151.428)" gradientUnits="userSpaceOnUse"><stop offset="0%" stop-opacity="1" style="stop-color:rgb(13,200,26)"/><stop offset="100%" stop-opacity="1" style="stop-color:rgb(0,83,6)"/></linearGradient><path d=" M 258.482 1157.624 L 254.104 1163.82 L 253.968 1163.61 L 253.744 1163.232 L 253.534 1162.846 L 253.339 1162.451 L 253.158 1162.047 L 252.993 1161.635 L 252.844 1161.215 L 252.711 1160.788 L 252.594 1160.354 L 252.495 1159.914 L 252.413 1159.466 L 252.348 1159.013 L 252.302 1158.556 L 252.274 1158.092 L 252.264 1157.624 L 252.274 1157.156 L 252.302 1156.691 L 252.348 1156.234 L 252.413 1155.781 L 252.495 1155.334 L 252.594 1154.893 L 252.711 1154.459 L 252.844 1154.032 L 252.993 1153.613 L 253.158 1153.201 L 253.339 1152.797 L 253.534 1152.401 L 253.744 1152.015 L 253.968 1151.637 L 254.104 1151.428 L 258.482 1157.624 L 258.482 1157.624 Z  M 273.52 1152.015 L 273.73 1152.401 L 273.925 1152.797 L 274.106 1153.201 L 274.271 1153.613 L 274.42 1154.032 L 274.553 1154.459 L 274.67 1154.893 L 274.769 1155.334 L 274.851 1155.781 L 274.916 1156.234 L 274.962 1156.691 L 274.99 1157.156 L 275 1157.624 L 274.99 1158.092 L 274.962 1158.556 L 274.916 1159.013 L 274.851 1159.466 L 274.769 1159.914 L 274.67 1160.354 L 274.553 1160.788 L 274.42 1161.215 L 274.271 1161.635 L 274.106 1162.047 L 273.925 1162.451 L 273.73 1162.846 L 273.52 1163.232 L 273.296 1163.61 L 273.16 1163.82 L 268.782 1157.624 L 273.16 1151.428 L 273.296 1151.637 L 273.52 1152.015 Z " fill="url(#_lgradient_2)"/><g><path d=" M 258.482 1157.624 L 254.104 1163.82 L 253.968 1163.61 L 253.744 1163.232 L 253.534 1162.846 L 253.339 1162.451 L 253.158 1162.047 L 252.993 1161.635 L 252.844 1161.215 L 252.711 1160.788 L 252.594 1160.354 L 252.495 1159.914 L 252.413 1159.466 L 252.348 1159.013 L 252.302 1158.556 L 252.274 1158.092 L 252.264 1157.624 L 252.274 1157.156 L 252.302 1156.691 L 252.348 1156.234 L 252.413 1155.781 L 252.495 1155.334 L 252.594 1154.893 L 252.711 1154.459 L 252.844 1154.032 L 252.993 1153.613 L 253.158 1153.201 L 253.339 1152.797 L 253.534 1152.401 L 253.744 1152.015 L 253.968 1151.637 L 254.104 1151.428 L 258.482 1157.624 L 258.482 1157.624 Z  M 273.52 1152.015 L 273.73 1152.401 L 273.925 1152.797 L 274.106 1153.201 L 274.271 1153.613 L 274.42 1154.032 L 274.553 1154.459 L 274.67 1154.893 L 274.769 1155.334 L 274.851 1155.781 L 274.916 1156.234 L 274.962 1156.691 L 274.99 1157.156 L 275 1157.624 L 274.99 1158.092 L 274.962 1158.556 L 274.916 1159.013 L 274.851 1159.466 L 274.769 1159.914 L 274.67 1160.354 L 274.553 1160.788 L 274.42 1161.215 L 274.271 1161.635 L 274.106 1162.047 L 273.925 1162.451 L 273.73 1162.846 L 273.52 1163.232 L 273.296 1163.61 L 273.16 1163.82 L 268.782 1157.624 L 273.16 1151.428 L 273.296 1151.637 L 273.52 1152.015 Z " fill="none" vector-effect="non-scaling-stroke" stroke-width="1.52" stroke="rgb(3,86,0)" stroke-linejoin="miter" stroke-linecap="butt" stroke-miterlimit="4"/></g></g><g><linearGradient id="_lgradient_3" x1="0.5" y1="0" x2="0.49999999999999983" y2="1" gradientTransform="matrix(22.112,0,0,42.624,252.576,1136.312)" gradientUnits="userSpaceOnUse"><stop offset="0%" stop-opacity="1" style="stop-color:rgb(132,255,113)"/><stop offset="100%" stop-opacity="1" style="stop-color:rgb(38,161,24)"/></linearGradient><path d=" M 263.632 1172.2 L 258.25 1178.935 L 252.576 1178.935 L 252.576 1165.654 L 258.25 1157.624 L 252.576 1149.594 L 252.576 1136.312 L 258.25 1136.312 L 263.632 1143.047 L 269.014 1136.312 L 274.688 1136.312 L 274.688 1149.594 L 269.014 1157.624 L 274.688 1165.654 L 274.688 1178.935 L 269.014 1178.935 L 269.014 1178.935 L 263.632 1172.2 Z " fill="url(#_lgradient_3)"/><g><mask id="_mask_hyaq2b5eqanafKPhYyAHCS56rLF7ef5t" x="-200%" y="-200%" width="400%" height="400%"><rect x="-200%" y="-200%" width="400%" height="400%" style="fill:white;"/><path d=" M 263.632 1172.2 L 258.25 1178.935 L 252.576 1178.935 L 252.576 1165.654 L 258.25 1157.624 L 252.576 1149.594 L 252.576 1136.312 L 258.25 1136.312 L 263.632 1143.047 L 269.014 1136.312 L 274.688 1136.312 L 274.688 1149.594 L 269.014 1157.624 L 274.688 1165.654 L 274.688 1178.935 L 269.014 1178.935 L 269.014 1178.935 L 263.632 1172.2 Z " fill="black" stroke="none"/></mask><path d=" M 263.632 1172.2 L 258.25 1178.935 L 252.576 1178.935 L 252.576 1165.654 L 258.25 1157.624 L 252.576 1149.594 L 252.576 1136.312 L 258.25 1136.312 L 263.632 1143.047 L 269.014 1136.312 L 274.688 1136.312 L 274.688 1149.594 L 269.014 1157.624 L 274.688 1165.654 L 274.688 1178.935 L 269.014 1178.935 L 269.014 1178.935 L 263.632 1172.2 Z " fill="none" mask="url(#_mask_hyaq2b5eqanafKPhYyAHCS56rLF7ef5t)" vector-effect="non-scaling-stroke" stroke-width="4.48" stroke="rgb(2,63,0)" stroke-linejoin="miter" stroke-linecap="butt" stroke-miterlimit="4"/><path d=" M 263.632 1172.2 L 258.25 1178.935 L 252.576 1178.935 L 252.576 1165.654 L 258.25 1157.624 L 252.576 1149.594 L 252.576 1136.312 L 258.25 1136.312 L 263.632 1143.047 L 269.014 1136.312 L 274.688 1136.312 L 274.688 1149.594 L 269.014 1157.624 L 274.688 1165.654 L 274.688 1178.935 L 269.014 1178.935 L 269.014 1178.935 L 263.632 1172.2 Z " fill="none"/></g></g></g></g><g><g><g><linearGradient id="_lgradient_4" x1="0.5" y1="0" x2="0.49999999999999983" y2="1" gradientTransform="matrix(22.736,0,0,12.392,194,1172.739)" gradientUnits="userSpaceOnUse"><stop offset="0%" stop-opacity="1" style="stop-color:rgb(13,200,26)"/><stop offset="100%" stop-opacity="1" style="stop-color:rgb(0,83,6)"/></linearGradient><path d=" M 200.218 1178.935 L 195.84 1185.131 L 195.704 1184.922 L 195.48 1184.544 L 195.27 1184.158 L 195.075 1183.762 L 194.894 1183.358 L 194.729 1182.946 L 194.58 1182.527 L 194.447 1182.1 L 194.33 1181.666 L 194.231 1181.225 L 194.149 1180.778 L 194.084 1180.325 L 194.038 1179.868 L 194.01 1179.403 L 194 1178.935 L 194.01 1178.467 L 194.038 1178.003 L 194.084 1177.546 L 194.149 1177.093 L 194.231 1176.645 L 194.33 1176.205 L 194.447 1175.771 L 194.58 1175.344 L 194.729 1174.924 L 194.894 1174.512 L 195.075 1174.108 L 195.27 1173.713 L 195.48 1173.327 L 195.704 1172.949 L 195.84 1172.739 L 200.218 1178.935 L 200.218 1178.935 Z  M 215.256 1173.327 L 215.466 1173.713 L 215.661 1174.108 L 215.842 1174.512 L 216.007 1174.924 L 216.156 1175.344 L 216.289 1175.771 L 216.406 1176.205 L 216.505 1176.645 L 216.587 1177.093 L 216.652 1177.546 L 216.698 1178.003 L 216.726 1178.467 L 216.736 1178.935 L 216.726 1179.403 L 216.698 1179.868 L 216.652 1180.325 L 216.587 1180.778 L 216.505 1181.225 L 216.406 1181.666 L 216.289 1182.1 L 216.156 1182.527 L 216.007 1182.946 L 215.842 1183.358 L 215.661 1183.762 L 215.466 1184.158 L 215.256 1184.544 L 215.032 1184.922 L 214.896 1185.131 L 210.518 1178.935 L 214.896 1172.739 L 215.032 1172.949 L 215.256 1173.327 Z " fill="url(#_lgradient_4)"/><g><path d=" M 200.218 1178.935 L 195.84 1185.131 L 195.704 1184.922 L 195.48 1184.544 L 195.27 1184.158 L 195.075 1183.762 L 194.894 1183.358 L 194.729 1182.946 L 194.58 1182.527 L 194.447 1182.1 L 194.33 1181.666 L 194.231 1181.225 L 194.149 1180.778 L 194.084 1180.325 L 194.038 1179.868 L 194.01 1179.403 L 194 1178.935 L 194.01 1178.467 L 194.038 1178.003 L 194.084 1177.546 L 194.149 1177.093 L 194.231 1176.645 L 194.33 1176.205 L 194.447 1175.771 L 194.58 1175.344 L 194.729 1174.924 L 194.894 1174.512 L 195.075 1174.108 L 195.27 1173.713 L 195.48 1173.327 L 195.704 1172.949 L 195.84 1172.739 L 200.218 1178.935 L 200.218 1178.935 Z  M 215.256 1173.327 L 215.466 1173.713 L 215.661 1174.108 L 215.842 1174.512 L 216.007 1174.924 L 216.156 1175.344 L 216.289 1175.771 L 216.406 1176.205 L 216.505 1176.645 L 216.587 1177.093 L 216.652 1177.546 L 216.698 1178.003 L 216.726 1178.467 L 216.736 1178.935 L 216.726 1179.403 L 216.698 1179.868 L 216.652 1180.325 L 216.587 1180.778 L 216.505 1181.225 L 216.406 1181.666 L 216.289 1182.1 L 216.156 1182.527 L 216.007 1182.946 L 215.842 1183.358 L 215.661 1183.762 L 215.466 1184.158 L 215.256 1184.544 L 215.032 1184.922 L 214.896 1185.131 L 210.518 1178.935 L 214.896 1172.739 L 215.032 1172.949 L 215.256 1173.327 Z " fill="none" vector-effect="non-scaling-stroke" stroke-width="1.52" stroke="rgb(3,86,0)" stroke-linejoin="miter" stroke-linecap="butt" stroke-miterlimit="4"/></g></g><g><linearGradient id="_lgradient_5" x1="0.5" y1="0" x2="0.49999999999999983" y2="1" gradientTransform="matrix(22.112,0,0,42.624,194.312,1157.624)" gradientUnits="userSpaceOnUse"><stop offset="0%" stop-opacity="1" style="stop-color:rgb(132,255,113)"/><stop offset="100%" stop-opacity="1" style="stop-color:rgb(38,161,24)"/></linearGradient><path d=" M 205.368 1193.512 L 199.986 1200.247 L 194.312 1200.247 L 194.312 1186.965 L 199.986 1178.935 L 194.312 1170.905 L 194.312 1157.624 L 199.986 1157.624 L 205.368 1164.359 L 210.75 1157.624 L 216.424 1157.624 L 216.424 1170.905 L 210.75 1178.935 L 216.424 1186.965 L 216.424 1200.247 L 210.75 1200.247 L 210.75 1200.247 L 205.368 1193.512 Z " fill="url(#_lgradient_5)"/><g><mask id="_mask_olMz7ukcLCOyc8j2ToOHu5Ltq0HoWMm9" x="-200%" y="-200%" width="400%" height="400%"><rect x="-200%" y="-200%" width="400%" height="400%" style="fill:white;"/><path d=" M 205.368 1193.512 L 199.986 1200.247 L 194.312 1200.247 L 194.312 1186.965 L 199.986 1178.935 L 194.312 1170.905 L 194.312 1157.624 L 199.986 1157.624 L 205.368 1164.359 L 210.75 1157.624 L 216.424 1157.624 L 216.424 1170.905 L 210.75 1178.935 L 216.424 1186.965 L 216.424 1200.247 L 210.75 1200.247 L 210.75 1200.247 L 205.368 1193.512 Z " fill="black" stroke="none"/></mask><path d=" M 205.368 1193.512 L 199.986 1200.247 L 194.312 1200.247 L 194.312 1186.965 L 199.986 1178.935 L 194.312 1170.905 L 194.312 1157.624 L 199.986 1157.624 L 205.368 1164.359 L 210.75 1157.624 L 216.424 1157.624 L 216.424 1170.905 L 210.75 1178.935 L 216.424 1186.965 L 216.424 1200.247 L 210.75 1200.247 L 210.75 1200.247 L 205.368 1193.512 Z " fill="none" mask="url(#_mask_olMz7ukcLCOyc8j2ToOHu5Ltq0HoWMm9)" vector-effect="non-scaling-stroke" stroke-width="4.48" stroke="rgb(2,63,0)" stroke-linejoin="miter" stroke-linecap="butt" stroke-miterlimit="4"/><path d=" M 205.368 1193.512 L 199.986 1200.247 L 194.312 1200.247 L 194.312 1186.965 L 199.986 1178.935 L 194.312 1170.905 L 194.312 1157.624 L 199.986 1157.624 L 205.368 1164.359 L 210.75 1157.624 L 216.424 1157.624 L 216.424 1170.905 L 210.75 1178.935 L 216.424 1186.965 L 216.424 1200.247 L 210.75 1200.247 L 210.75 1200.247 L 205.368 1193.512 Z " fill="none"/></g></g></g></g><g><g><g><linearGradient id="_lgradient_6" x1="0.5" y1="0" x2="0.49999999999999983" y2="1" gradientTransform="matrix(22.736,0,0,12.392,137,1194.051)" gradientUnits="userSpaceOnUse"><stop offset="0%" stop-opacity="1" style="stop-color:rgb(13,200,26)"/><stop offset="100%" stop-opacity="1" style="stop-color:rgb(0,83,6)"/></linearGradient><path d=" M 143.218 1200.247 L 138.84 1206.443 L 138.704 1206.234 L 138.48 1205.856 L 138.27 1205.47 L 138.075 1205.074 L 137.894 1204.67 L 137.729 1204.258 L 137.58 1203.839 L 137.447 1203.412 L 137.33 1202.978 L 137.231 1202.537 L 137.149 1202.09 L 137.084 1201.637 L 137.038 1201.179 L 137.01 1200.715 L 137 1200.247 L 137.01 1199.779 L 137.038 1199.315 L 137.084 1198.857 L 137.149 1198.405 L 137.231 1197.957 L 137.33 1197.516 L 137.447 1197.083 L 137.58 1196.655 L 137.729 1196.236 L 137.894 1195.824 L 138.075 1195.42 L 138.27 1195.025 L 138.48 1194.638 L 138.704 1194.261 L 138.84 1194.051 L 143.218 1200.247 L 143.218 1200.247 Z  M 158.256 1194.638 L 158.466 1195.025 L 158.661 1195.42 L 158.842 1195.824 L 159.007 1196.236 L 159.156 1196.655 L 159.289 1197.083 L 159.406 1197.516 L 159.505 1197.957 L 159.587 1198.405 L 159.652 1198.857 L 159.698 1199.315 L 159.726 1199.779 L 159.736 1200.247 L 159.726 1200.715 L 159.698 1201.179 L 159.652 1201.637 L 159.587 1202.09 L 159.505 1202.537 L 159.406 1202.978 L 159.289 1203.412 L 159.156 1203.839 L 159.007 1204.258 L 158.842 1204.67 L 158.661 1205.074 L 158.466 1205.47 L 158.256 1205.856 L 158.032 1206.234 L 157.896 1206.443 L 153.518 1200.247 L 157.896 1194.051 L 158.032 1194.261 L 158.256 1194.638 Z " fill="url(#_lgradient_6)"/><g><path d=" M 143.218 1200.247 L 138.84 1206.443 L 138.704 1206.234 L 138.48 1205.856 L 138.27 1205.47 L 138.075 1205.074 L 137.894 1204.67 L 137.729 1204.258 L 137.58 1203.839 L 137.447 1203.412 L 137.33 1202.978 L 137.231 1202.537 L 137.149 1202.09 L 137.084 1201.637 L 137.038 1201.179 L 137.01 1200.715 L 137 1200.247 L 137.01 1199.779 L 137.038 1199.315 L 137.084 1198.857 L 137.149 1198.405 L 137.231 1197.957 L 137.33 1197.516 L 137.447 1197.083 L 137.58 1196.655 L 137.729 1196.236 L 137.894 1195.824 L 138.075 1195.42 L 138.27 1195.025 L 138.48 1194.638 L 138.704 1194.261 L 138.84 1194.051 L 143.218 1200.247 L 143.218 1200.247 Z  M 158.256 1194.638 L 158.466 1195.025 L 158.661 1195.42 L 158.842 1195.824 L 159.007 1196.236 L 159.156 1196.655 L 159.289 1197.083 L 159.406 1197.516 L 159.505 1197.957 L 159.587 1198.405 L 159.652 1198.857 L 159.698 1199.315 L 159.726 1199.779 L 159.736 1200.247 L 159.726 1200.715 L 159.698 1201.179 L 159.652 1201.637 L 159.587 1202.09 L 159.505 1202.537 L 159.406 1202.978 L 159.289 1203.412 L 159.156 1203.839 L 159.007 1204.258 L 158.842 1204.67 L 158.661 1205.074 L 158.466 1205.47 L 158.256 1205.856 L 158.032 1206.234 L 157.896 1206.443 L 153.518 1200.247 L 157.896 1194.051 L 158.032 1194.261 L 158.256 1194.638 Z " fill="none" vector-effect="non-scaling-stroke" stroke-width="1.52" stroke="rgb(3,86,0)" stroke-linejoin="miter" stroke-linecap="butt" stroke-miterlimit="4"/></g></g><g><linearGradient id="_lgradient_7" x1="0.5" y1="0" x2="0.49999999999999983" y2="1" gradientTransform="matrix(22.112,0,0,42.624,137.312,1178.935)" gradientUnits="userSpaceOnUse"><stop offset="0%" stop-opacity="1" style="stop-color:rgb(132,255,113)"/><stop offset="100%" stop-opacity="1" style="stop-color:rgb(38,161,24)"/></linearGradient><path d=" M 148.368 1214.824 L 142.986 1221.559 L 137.312 1221.559 L 137.312 1208.277 L 142.986 1200.247 L 137.312 1192.217 L 137.312 1178.935 L 142.986 1178.935 L 148.368 1185.671 L 153.75 1178.935 L 159.424 1178.935 L 159.424 1192.217 L 153.75 1200.247 L 159.424 1208.277 L 159.424 1221.559 L 153.75 1221.559 L 153.75 1221.559 L 148.368 1214.824 Z " fill="url(#_lgradient_7)"/><g><mask id="_mask_2vB192ORlZhPN3dF3fBQ9Y0ZlUUzv7sA" x="-200%" y="-200%" width="400%" height="400%"><rect x="-200%" y="-200%" width="400%" height="400%" style="fill:white;"/><path d=" M 148.368 1214.824 L 142.986 1221.559 L 137.312 1221.559 L 137.312 1208.277 L 142.986 1200.247 L 137.312 1192.217 L 137.312 1178.935 L 142.986 1178.935 L 148.368 1185.671 L 153.75 1178.935 L 159.424 1178.935 L 159.424 1192.217 L 153.75 1200.247 L 159.424 1208.277 L 159.424 1221.559 L 153.75 1221.559 L 153.75 1221.559 L 148.368 1214.824 Z " fill="black" stroke="none"/></mask><path d=" M 148.368 1214.824 L 142.986 1221.559 L 137.312 1221.559 L 137.312 1208.277 L 142.986 1200.247 L 137.312 1192.217 L 137.312 1178.935 L 142.986 1178.935 L 148.368 1185.671 L 153.75 1178.935 L 159.424 1178.935 L 159.424 1192.217 L 153.75 1200.247 L 159.424 1208.277 L 159.424 1221.559 L 153.75 1221.559 L 153.75 1221.559 L 148.368 1214.824 Z " fill="none" mask="url(#_mask_2vB192ORlZhPN3dF3fBQ9Y0ZlUUzv7sA)" vector-effect="non-scaling-stroke" stroke-width="4.48" stroke="rgb(2,63,0)" stroke-linejoin="miter" stroke-linecap="butt" stroke-miterlimit="4"/><path d=" M 148.368 1214.824 L 142.986 1221.559 L 137.312 1221.559 L 137.312 1208.277 L 142.986 1200.247 L 137.312 1192.217 L 137.312 1178.935 L 142.986 1178.935 L 148.368 1185.671 L 153.75 1178.935 L 159.424 1178.935 L 159.424 1192.217 L 153.75 1200.247 L 159.424 1208.277 L 159.424 1221.559 L 153.75 1221.559 L 153.75 1221.559 L 148.368 1214.824 Z " fill="none"/></g></g></g></g></g><g><line x1="40" y1="1087.364" x2="433.6" y2="1087.364" vector-effect="non-scaling-stroke" stroke-width="3" stroke="rgb(164,8,255)" stroke-linejoin="miter" stroke-linecap="square" stroke-miterlimit="3"/><line x1="790" y1="1488" x2="1308.8" y2="1488" vector-effect="non-scaling-stroke" stroke-width="3" stroke="rgb(164,8,255)" stroke-linejoin="miter" stroke-linecap="square" stroke-miterlimit="3"/><line x1="884" y1="512" x2="884" y2="23" vector-effect="non-scaling-stroke" stroke-width="3" stroke="rgb(164,8,255)" stroke-linejoin="miter" stroke-linecap="square" stroke-miterlimit="3"/><line x1="2087" y1="317" x2="2087" y2="690" vector-effect="non-scaling-stroke" stroke-width="3" stroke="rgb(164,8,255)" stroke-linejoin="miter" stroke-linecap="square" stroke-miterlimit="3"/><line x1="3248" y1="317" x2="3248" y2="690" vector-effect="non-scaling-stroke" stroke-width="3" stroke="rgb(164,8,255)" stroke-linejoin="miter" stroke-linecap="square" stroke-miterlimit="3"/><path d=" M 3371 690 L 3371 1009 L 3438 1057" fill="none" vector-effect="non-scaling-stroke" stroke-width="3" stroke="rgb(164,8,255)" stroke-linejoin="miter" stroke-linecap="square" stroke-miterlimit="3"/></g><g><text transform="matrix(1,0,0,1,2094,1174.787)" style="font-family:'Montserrat';font-weight:400;font-size:48px;font-style:normal;fill:#000000;stroke:none;">Brīvības Laukums</text><text transform="matrix(1,0,0,1,2515,146.464)" style="font-family:'Montserrat';font-weight:400;font-size:48px;font-style:normal;fill:#000000;stroke:none;">Līklocis</text><text transform="matrix(1,0,0,1,1386,435.126)" style="font-family:'Montserrat';font-weight:400;font-size:48px;font-style:normal;fill:#000000;stroke:none;">Sprauga</text><text transform="matrix(1,0,0,1,3593,687.464)" style="font-family:'Montserrat';font-weight:400;font-size:48px;font-style:normal;fill:#000000;stroke:none;">Grieze</text><text transform="matrix(1,0,0,1,273,267.126)" style="font-family:'Montserrat';font-weight:400;font-size:48px;font-style:normal;fill:#000000;stroke:none;">Sākuma Grieziens</text><text transform="matrix(1,0,0,1,779,1020.787)" style="font-family:'Montserrat';font-weight:400;font-size:48px;font-style:normal;fill:#000000;stroke:none;">Ņūtona Lamatas</text><text transform="matrix(1,0,0,1,490.5,1744.126)" style="font-family:'Montserrat';font-weight:400;font-size:48px;font-style:normal;fill:#000000;stroke:none;">Finiša 180</text></g><g><g><path d=" M 385.848 479 L 583 924 L 583 1086 L 385.848 1086 L 385.848 479 Z " fill="rgb(0,255,0)" fill-opacity="0.23" vector-effect="non-scaling-stroke" stroke-width="1" stroke="rgb(0,0,0)" stroke-linejoin="miter" stroke-linecap="square" stroke-miterlimit="3"/><path d=" M 385.848 479 L 583 924 L 819 689 L 884 511 L 884 401 L 472 401 L 385.848 479 Z " fill="rgb(0,255,0)" fill-opacity="0.23" vector-effect="non-scaling-stroke" stroke-width="1" stroke="rgb(0,0,0)" stroke-linejoin="miter" stroke-linecap="square" stroke-miterlimit="3"/><path d=" M 90 164.249 L 90 1086 L 0 1086 L 0 0 L 90 0 L 90 164.249 Z " fill="rgb(0,255,0)" fill-opacity="0.23" vector-effect="non-scaling-stroke" stroke-width="1" stroke="rgb(0,0,0)" stroke-linejoin="miter" stroke-linecap="square" stroke-miterlimit="3"/><path d=" M 168 86 L 168 0 L 90 0 L 90 165 L 168 86 Z " fill="rgb(0,255,0)" fill-opacity="0.23" vector-effect="non-scaling-stroke" stroke-width="1" stroke="rgb(0,0,0)" stroke-linejoin="miter" stroke-linecap="square" stroke-miterlimit="3"/><path d=" M 168 86 L 168 0 L 884 0 L 884 86 L 168 86 Z " fill="rgb(0,255,0)" fill-opacity="0.23" vector-effect="non-scaling-stroke" stroke-width="1" stroke="rgb(0,0,0)" stroke-linejoin="miter" stroke-linecap="square" stroke-miterlimit="3"/></g><g/></g><g><g><path d=" M 1309 689 L 884 511 L 884 401 L 1309 584 L 1309 689 Z " fill="rgb(0,255,0)" fill-opacity="0.23" vector-effect="non-scaling-stroke" stroke-width="1" stroke="rgb(0,0,0)" stroke-linejoin="miter" stroke-linecap="square" stroke-miterlimit="3"/><path d=" M 1309 689 L 2087 689 L 2087 584 L 1309 584 L 1309 689 Z " fill="rgb(0,255,0)" fill-opacity="0.23" vector-effect="non-scaling-stroke" stroke-width="1" stroke="rgb(0,0,0)" stroke-linejoin="miter" stroke-linecap="square" stroke-miterlimit="3"/><path d=" M 1309 285 L 2087 372 L 2087 0 L 884 0 L 884 86 L 1309 285 Z " fill="rgb(0,255,0)" fill-opacity="0.23" vector-effect="non-scaling-stroke" stroke-width="1" stroke="rgb(0,0,0)" stroke-linejoin="miter" stroke-linecap="square" stroke-miterlimit="3"/></g><g><line x1="2087" y1="22" x2="884" y2="22" vector-effect="non-scaling-stroke" stroke-width="1" stroke="rgb(0,0,0)" stroke-linejoin="miter" stroke-linecap="square" stroke-miterlimit="3"/><path d=" M 2087 689 L 1309 689 L 884 511" fill="none" vector-effect="non-scaling-stroke" stroke-width="1" stroke="rgb(0,0,0)" stroke-linejoin="miter" stroke-linecap="square" stroke-miterlimit="3"/></g></g><g><g><path d=" M 2757 401 L 2885 529 L 2885 689 L 2087 689 L 2087 584 L 2469 401 L 2757 401 Z " fill="rgb(0,255,0)" fill-opacity="0.23" vector-effect="non-scaling-stroke" stroke-width="1" stroke="rgb(0,0,0)" stroke-linejoin="miter" stroke-linecap="square" stroke-miterlimit="3"/><path d=" M 2885 529 L 2885 689 L 3248 689 L 3248 529 L 2885 529 Z " fill="rgb(0,255,0)" fill-opacity="0.23" vector-effect="non-scaling-stroke" stroke-width="1" stroke="rgb(0,0,0)" stroke-linejoin="miter" stroke-linecap="square" stroke-miterlimit="3"/><path d=" M 2757 401 L 2757 285 L 2614 217 L 2469 285 L 2469 401 L 2757 401 Z " fill="rgb(0,255,0)" fill-opacity="0.23" vector-effect="non-scaling-stroke" stroke-width="1" stroke="rgb(0,0,0)" stroke-linejoin="miter" stroke-linecap="square" stroke-miterlimit="3"/><path d=" M 2157 334 L 2087 372 L 2087 0 L 2157 0 L 2157 334 Z " fill="rgb(0,255,0)" fill-opacity="0.23" vector-effect="non-scaling-stroke" stroke-width="1" stroke="rgb(0,0,0)" stroke-linejoin="miter" stroke-linecap="square" stroke-miterlimit="3"/><path d=" M 2157 122 L 2339 34 L 2339 0 L 2157 0 L 2157 122 Z " fill="rgb(0,255,0)" fill-opacity="0.23" vector-effect="non-scaling-stroke" stroke-width="1" stroke="rgb(0,0,0)" stroke-linejoin="miter" stroke-linecap="square" stroke-miterlimit="3"/><path d=" M 2907 34 L 2339 34 L 2339 0 L 2907 0 L 2907 34 Z " fill="rgb(0,255,0)" fill-opacity="0.23" vector-effect="non-scaling-stroke" stroke-width="1" stroke="rgb(0,0,0)" stroke-linejoin="miter" stroke-linecap="square" stroke-miterlimit="3"/><path d=" M 2907 34 L 3095 106 L 3095 0 L 2907 0 L 2907 34 Z " fill="rgb(0,255,0)" fill-opacity="0.23" vector-effect="non-scaling-stroke" stroke-width="1" stroke="rgb(0,0,0)" stroke-linejoin="miter" stroke-linecap="square" stroke-miterlimit="3"/><path d=" M 3248 372 L 3167.904 372 L 3095 334 L 3095 0 L 3248 0 L 3248 372 Z " fill="rgb(0,255,0)" fill-opacity="0.23" vector-effect="non-scaling-stroke" stroke-width="1" stroke="rgb(0,0,0)" stroke-linejoin="miter" stroke-linecap="square" stroke-miterlimit="3"/></g><g><path d=" M 3248 318 L 3169 268 L 3169 34 L 2907 10 L 2339 10 L 2087 22 L 2087 304" fill="none" vector-effect="non-scaling-stroke" stroke-width="1" stroke="rgb(0,0,0)" stroke-linejoin="miter" stroke-linecap="square" stroke-miterlimit="3"/><path d=" M 2087 689 L 2613 689 L 2613 285" fill="none" vector-effect="non-scaling-stroke" stroke-width="1" stroke="rgb(0,0,0)" stroke-linejoin="miter" stroke-linecap="square" stroke-miterlimit="3"/><line x1="2613" y1="689" x2="3248" y2="689" vector-effect="non-scaling-stroke" stroke-width="1" stroke="rgb(0,0,0)" stroke-linejoin="miter" stroke-linecap="square" stroke-miterlimit="3"/></g></g><g><g><path d=" M 3371 529 L 3531 689 L 3371 843 L 3371 689 L 3248 689 L 3248 529 L 3371 529 Z " fill="rgb(0,255,0)" fill-opacity="0.23" vector-effect="non-scaling-stroke" stroke-width="1" stroke="rgb(0,0,0)" stroke-linejoin="miter" stroke-linecap="square" stroke-miterlimit="3"/><path d=" M 3248 372 L 3745 372 L 4000 0 L 3248 0 L 3248 372 Z " fill="rgb(0,255,0)" fill-opacity="0.23" vector-effect="non-scaling-stroke" stroke-width="1" stroke="rgb(0,0,0)" stroke-linejoin="miter" stroke-linecap="square" stroke-miterlimit="3"/><path d=" M 3905 529 L 3745 372 L 4000 0 L 4000 529 L 3905 529 Z " fill="rgb(0,255,0)" fill-opacity="0.23" vector-effect="non-scaling-stroke" stroke-width="1" stroke="rgb(0,0,0)" stroke-linejoin="miter" stroke-linecap="square" stroke-miterlimit="3"/><path d=" M 3905 529 L 3905 843 L 4000 843 L 4000 529 L 3905 529 Z " fill="rgb(0,255,0)" fill-opacity="0.23" vector-effect="non-scaling-stroke" stroke-width="1" stroke="rgb(0,0,0)" stroke-linejoin="miter" stroke-linecap="square" stroke-miterlimit="3"/><path d=" M 3745 1008 L 3905 843 L 4000 843 L 4000 2000 L 3745 1008 Z " fill="rgb(0,255,0)" fill-opacity="0.23" vector-effect="non-scaling-stroke" stroke-width="1" stroke="rgb(0,0,0)" stroke-linejoin="miter" stroke-linecap="square" stroke-miterlimit="3"/><path d=" M 3745 1008 L 3371 1008 L 3438 1056 L 3438 2000 L 4000 2000 L 3745 1008 Z " fill="rgb(0,255,0)" fill-opacity="0.23" vector-effect="non-scaling-stroke" stroke-width="1" stroke="rgb(0,0,0)" stroke-linejoin="miter" stroke-linecap="square" stroke-miterlimit="3"/></g><g><path d=" M 3248 318 L 3806 318 L 3970 479 L 3970 892 L 3806 1056 L 3438 1056" fill="none" vector-effect="non-scaling-stroke" stroke-width="1" stroke="rgb(0,0,0)" stroke-linejoin="miter" stroke-linecap="square" stroke-miterlimit="3"/><line x1="3371" y1="689" x2="3248" y2="689" vector-effect="non-scaling-stroke" stroke-width="1" stroke="rgb(0,0,0)" stroke-linejoin="miter" stroke-linecap="square" stroke-miterlimit="3"/></g></g><g><g><path d=" M 2885 689 L 3371 689 L 3371 843 L 2885 843 L 2885 689 Z " fill="rgb(0,255,0)" fill-opacity="0.23" vector-effect="non-scaling-stroke" stroke-width="1" stroke="rgb(0,0,0)" stroke-linejoin="miter" stroke-linecap="square" stroke-miterlimit="3"/><path d=" M 2885 689 L 1309 689 L 1309 762 L 2087 969 L 2757 969 L 2885 843 L 2885 689 Z " fill="rgb(0,255,0)" fill-opacity="0.23" vector-effect="non-scaling-stroke" stroke-width="1" stroke="rgb(0,0,0)" stroke-linejoin="miter" stroke-linecap="square" stroke-miterlimit="3"/><path d=" M 2885 1494 L 3371 1008 L 3438 1056 L 3438 2000 L 2885 2000 L 2885 1494 Z " fill="rgb(0,255,0)" fill-opacity="0.23" vector-effect="non-scaling-stroke" stroke-width="1" stroke="rgb(0,0,0)" stroke-linejoin="miter" stroke-linecap="square" stroke-miterlimit="3"/><path d=" M 2885 1494 L 2087 1494 L 2087 2000 L 2885 2000 L 2885 1494 Z " fill="rgb(0,255,0)" fill-opacity="0.23" vector-effect="non-scaling-stroke" stroke-width="1" stroke="rgb(0,0,0)" stroke-linejoin="miter" stroke-linecap="square" stroke-miterlimit="3"/><path d=" M 1309 1270 L 2087 1494 L 2087 2000 L 1309 2000 L 1309 1270 Z " fill="rgb(0,255,0)" fill-opacity="0.23" vector-effect="non-scaling-stroke" stroke-width="1" stroke="rgb(0,0,0)" stroke-linejoin="miter" stroke-linecap="square" stroke-miterlimit="3"/></g><g><path d=" M 1309 1332 L 2087 1556 L 3438 1556 L 3438 1056" fill="none" vector-effect="non-scaling-stroke" stroke-width="1" stroke="rgb(0,0,0)" stroke-linejoin="miter" stroke-linecap="square" stroke-miterlimit="3"/><path d=" M 3371 689 L 2885 689 L 2716 858 L 2087 858 L 1454 689 L 1309 689 L 1309 1332" fill="none" vector-effect="non-scaling-stroke" stroke-width="1" stroke="rgb(0,0,0)" stroke-linejoin="miter" stroke-linecap="square" stroke-miterlimit="3"/></g></g><g><g><path d=" M 1309 689 L 1309 762 L 885 762 L 819 689 L 884 511 L 1309 689 Z " fill="rgb(0,255,0)" fill-opacity="0.23" vector-effect="non-scaling-stroke" stroke-width="1" stroke="rgb(0,0,0)" stroke-linejoin="miter" stroke-linecap="square" stroke-miterlimit="3"/><path d=" M 660 987 L 885 762 L 819 689 L 583 924 L 660 987 Z " fill="rgb(0,255,0)" fill-opacity="0.23" vector-effect="non-scaling-stroke" stroke-width="1" stroke="rgb(0,0,0)" stroke-linejoin="miter" stroke-linecap="square" stroke-miterlimit="3"/><path d=" M 660 987 L 660 1218 L 583 1281 L 583 924 L 660 987 Z " fill="rgb(0,255,0)" fill-opacity="0.23" vector-effect="non-scaling-stroke" stroke-width="1" stroke="rgb(0,0,0)" stroke-linejoin="miter" stroke-linecap="square" stroke-miterlimit="3"/><path d=" M 885 1488 L 885 1446 L 660 1218 L 583 1281 L 583 1488 L 885 1488 Z " fill="rgb(0,255,0)" fill-opacity="0.23" vector-effect="non-scaling-stroke" stroke-width="1" stroke="rgb(0,0,0)" stroke-linejoin="miter" stroke-linecap="square" stroke-miterlimit="3"/><path d=" M 1309 1270 L 1161 1122 L 1091 1122 L 1091 1186 L 1245 1340 L 1309 1270 Z " fill="rgb(0,255,0)" fill-opacity="0.23" vector-effect="non-scaling-stroke" stroke-width="1" stroke="rgb(0,0,0)" stroke-linejoin="miter" stroke-linecap="square" stroke-miterlimit="3"/><path d=" M 1309 1270 L 1309 1488 L 1245 1488 L 1245 1340 L 1309 1270 Z " fill="rgb(0,255,0)" fill-opacity="0.23" vector-effect="non-scaling-stroke" stroke-width="1" stroke="rgb(0,0,0)" stroke-linejoin="miter" stroke-linecap="square" stroke-miterlimit="3"/></g><g><line x1="1309" y1="1332" x2="1136" y2="1158" vector-effect="non-scaling-stroke" stroke-width="1" stroke="rgb(0,0,0)" stroke-linejoin="miter" stroke-linecap="square" stroke-miterlimit="3"/><path d=" M 790 1488 L 583 1281 L 583 924 L 819 689 L 1309 689" fill="none" vector-effect="non-scaling-stroke" stroke-width="1" stroke="rgb(0,0,0)" stroke-linejoin="miter" stroke-linecap="square" stroke-miterlimit="3"/></g></g><g><g><path d=" M 885 1488 L 885 1525 L 819 1581 L 450 1581 L 386 1524 L 386 1488 L 885 1488 Z " fill="rgb(0,255,0)" fill-opacity="0.23" vector-effect="non-scaling-stroke" stroke-width="1" stroke="rgb(0,0,0)" stroke-linejoin="miter" stroke-linecap="square" stroke-miterlimit="3"/><path d=" M 583 1488 L 583 1086 L 386 1086 L 386 1488 L 583 1488 Z " fill="rgb(0,255,0)" fill-opacity="0.23" vector-effect="non-scaling-stroke" stroke-width="1" stroke="rgb(0,0,0)" stroke-linejoin="miter" stroke-linecap="square" stroke-miterlimit="3"/><path d=" M 1309 2000 L 1309 1488 L 1245 1488 L 1245 2000 L 1309 2000 Z " fill="rgb(0,255,0)" fill-opacity="0.23" vector-effect="non-scaling-stroke" stroke-width="1" stroke="rgb(0,0,0)" stroke-linejoin="miter" stroke-linecap="square" stroke-miterlimit="3"/><path d=" M 217 2000 L 217 1876 L 1245 1876 L 1245 2000 L 217 2000 Z " fill="rgb(0,255,0)" fill-opacity="0.23" vector-effect="non-scaling-stroke" stroke-width="1" stroke="rgb(0,0,0)" stroke-linejoin="miter" stroke-linecap="square" stroke-miterlimit="3"/><path d=" M 0 2000 L 217 2000 L 217 1876 L 91 1750 L 0 1749 L 0 2000 Z " fill="rgb(0,255,0)" fill-opacity="0.23" vector-effect="non-scaling-stroke" stroke-width="1" stroke="rgb(0,0,0)" stroke-linejoin="miter" stroke-linecap="square" stroke-miterlimit="3"/><path d=" M 0 1086 L 90 1086 L 90 1749 L 0 1749 L 0 1086 Z " fill="rgb(0,255,0)" fill-opacity="0.23" vector-effect="non-scaling-stroke" stroke-width="1" stroke="rgb(0,0,0)" stroke-linejoin="miter" stroke-linecap="square" stroke-miterlimit="3"/></g><g><path d=" M 1309 1487 L 1309 1930 L 217 1930 L 39 1752 L 39 1086 L 39 140.325 L 168 22 L 884 22" fill="none" vector-effect="non-scaling-stroke" stroke-width="1" stroke="rgb(0,0,0)" stroke-linejoin="miter" stroke-linecap="square" stroke-miterlimit="3"/><path d=" M 790 1488 L 432 1487 L 432 1086 L 432 1038 L 517 924 L 517 553 L 559 511 L 884 511" fill="none" vector-effect="non-scaling-stroke" stroke-width="1" stroke="rgb(0,0,0)" stroke-linejoin="miter" stroke-linecap="square" stroke-miterlimit="3"/></g></g></g></svg>