<?xml version="1.0" standalone="no"?><!-- Generator: Gravit.io --><svg xmlns="http://www.w3.org/2000/svg" xmlns:xlink="http://www.w3.org/1999/xlink" style="isolation:isolate" viewBox="0 0 200 200" width="200px" height="200px"><defs><clipPath id="_clipPath_YiAa3e1BqgrH7ZNzyCJQjAa9zej0YHHW"><rect width="200" height="200"/></clipPath></defs><g clip-path="url(#_clipPath_YiAa3e1BqgrH7ZNzyCJQjAa9zej0YHHW)"><g><g><linearGradient id="_lgradient_0" x1="0.5" y1="0" x2="0.49999999999999983" y2="1" gradientTransform="matrix(-175.625,0,0,175.625,187.813,12.188)" gradientUnits="userSpaceOnUse"><stop offset="1.7391304347826086%" stop-opacity="1" style="stop-color:rgb(81,81,81)"/><stop offset="99.1304347826087%" stop-opacity="1" style="stop-color:rgb(51,51,51)"/></linearGradient><path d=" M 187.813 100 C 187.813 51.535 148.465 12.188 100 12.188 C 82.968 12.188 67.061 17.047 53.593 25.454 C 41.004 32.477 30.639 43.269 23.57 56.758 C 16.325 69.526 12.187 84.284 12.187 100 C 12.187 148.465 51.535 187.813 100 187.813 C 148.465 187.813 187.813 148.465 187.813 100 Z  M 138.296 100 C 138.296 78.864 121.136 61.704 100 61.704 C 78.864 61.704 61.704 78.864 61.704 100 C 61.704 121.136 78.864 138.296 100 138.296 C 121.136 138.296 138.296 121.136 138.296 100 Z " fill-rule="evenodd" fill="url(#_lgradient_0)"/></g><g><linearGradient id="_lgradient_1" x1="0.5" y1="0" x2="0.49999999999999983" y2="1" gradientTransform="matrix(-87.861,0,0,87.861,143.931,56.069)" gradientUnits="userSpaceOnUse"><stop offset="1.7391304347826086%" stop-opacity="1" style="stop-color:rgb(59,59,59)"/><stop offset="97.3913043478261%" stop-opacity="1" style="stop-color:rgb(74,74,74)"/></linearGradient><path d=" M 143.931 100 C 143.931 75.754 124.246 56.069 100 56.069 C 91.479 56.069 83.522 58.501 76.784 62.707 C 70.486 66.22 65.3 71.619 61.764 78.367 C 58.139 84.755 56.069 92.137 56.069 100 C 56.069 124.246 75.754 143.931 100 143.931 C 124.246 143.931 143.931 124.246 143.931 100 Z  M 119.159 100 C 119.159 89.426 110.574 80.841 100 80.841 C 89.426 80.841 80.841 89.426 80.841 100 C 80.841 110.574 89.426 119.159 100 119.159 C 110.574 119.159 119.159 110.574 119.159 100 Z " fill-rule="evenodd" fill="url(#_lgradient_1)"/></g><g><linearGradient id="_lgradient_2" x1="0.5" y1="0" x2="0.49999999999999983" y2="1" gradientTransform="matrix(-146.575,0,0,146.575,173.288,26.712)" gradientUnits="userSpaceOnUse"><stop offset="2.1739130434782608%" stop-opacity="1" style="stop-color:rgb(204,204,204)"/><stop offset="100%" stop-opacity="1" style="stop-color:rgb(125,125,125)"/></linearGradient><path d=" M 173.288 100 C 173.288 59.551 140.449 26.712 100 26.712 C 85.785 26.712 72.51 30.768 61.269 37.785 C 50.762 43.646 42.112 52.653 36.212 63.911 C 30.166 74.567 26.712 86.883 26.712 100 C 26.712 140.449 59.551 173.288 100 173.288 C 140.449 173.288 173.288 140.449 173.288 100 Z  M 131.962 100 C 131.962 82.36 117.64 68.038 100 68.038 C 82.36 68.038 68.038 82.36 68.038 100 C 68.038 117.64 82.36 131.962 100 131.962 C 117.64 131.962 131.962 117.64 131.962 100 Z " fill-rule="evenodd" fill="url(#_lgradient_2)"/></g></g></g></svg>